G04*
G04 #@! TF.GenerationSoftware,Altium Limited,Altium Designer,18.1.7 (191)*
G04*
G04 Layer_Color=32896*
%FSLAX25Y25*%
%MOIN*%
G70*
G01*
G75*
%ADD11C,0.00500*%
D11*
X66890Y35000D02*
X66816Y36003D01*
X66598Y36985D01*
X66238Y37924D01*
X65746Y38802D01*
X65131Y39598D01*
X64407Y40296D01*
X63589Y40881D01*
X62695Y41341D01*
X61743Y41666D01*
X60754Y41848D01*
X59748Y41885D01*
X58749Y41775D01*
X57775Y41521D01*
X56850Y41127D01*
X55991Y40603D01*
X55218Y39960D01*
X54547Y39211D01*
X53992Y38372D01*
X53565Y37461D01*
X53275Y36498D01*
X53129Y35503D01*
Y34497D01*
X53275Y33502D01*
X53565Y32539D01*
X53992Y31628D01*
X54547Y30789D01*
X55218Y30040D01*
X55991Y29397D01*
X56850Y28873D01*
X57775Y28479D01*
X58749Y28225D01*
X59748Y28115D01*
X60754Y28152D01*
X61743Y28334D01*
X62695Y28659D01*
X63589Y29119D01*
X64407Y29704D01*
X65131Y30402D01*
X65746Y31198D01*
X66238Y32076D01*
X66598Y33015D01*
X66816Y33997D01*
X66890Y35000D01*
X66816Y36003D01*
X66598Y36985D01*
X66238Y37924D01*
X65746Y38802D01*
X65131Y39598D01*
X64407Y40296D01*
X63589Y40881D01*
X62695Y41341D01*
X61743Y41666D01*
X60754Y41848D01*
X59748Y41885D01*
X58749Y41775D01*
X57775Y41521D01*
X56850Y41127D01*
X55991Y40603D01*
X55218Y39960D01*
X54547Y39211D01*
X53992Y38372D01*
X53565Y37461D01*
X53275Y36498D01*
X53129Y35503D01*
Y34497D01*
X53275Y33502D01*
X53565Y32539D01*
X53992Y31628D01*
X54547Y30789D01*
X55218Y30040D01*
X55991Y29397D01*
X56850Y28873D01*
X57775Y28479D01*
X58749Y28225D01*
X59748Y28115D01*
X60754Y28152D01*
X61743Y28334D01*
X62695Y28659D01*
X63589Y29119D01*
X64407Y29704D01*
X65131Y30402D01*
X65746Y31198D01*
X66238Y32076D01*
X66598Y33015D01*
X66816Y33997D01*
X66890Y35000D01*
X26890D02*
X26816Y36003D01*
X26598Y36985D01*
X26238Y37924D01*
X25746Y38802D01*
X25131Y39598D01*
X24407Y40296D01*
X23589Y40881D01*
X22695Y41341D01*
X21743Y41666D01*
X20753Y41848D01*
X19748Y41885D01*
X18749Y41775D01*
X17775Y41521D01*
X16850Y41127D01*
X15991Y40603D01*
X15218Y39960D01*
X14547Y39211D01*
X13992Y38372D01*
X13565Y37461D01*
X13275Y36498D01*
X13129Y35503D01*
Y34497D01*
X13275Y33502D01*
X13565Y32539D01*
X13992Y31628D01*
X14547Y30789D01*
X15218Y30040D01*
X15991Y29397D01*
X16850Y28873D01*
X17775Y28479D01*
X18749Y28225D01*
X19748Y28115D01*
X20754Y28152D01*
X21743Y28334D01*
X22695Y28659D01*
X23589Y29119D01*
X24407Y29704D01*
X25131Y30402D01*
X25746Y31198D01*
X26238Y32076D01*
X26598Y33015D01*
X26816Y33997D01*
X26890Y35000D01*
X26816Y36003D01*
X26598Y36985D01*
X26238Y37924D01*
X25746Y38802D01*
X25131Y39598D01*
X24407Y40296D01*
X23589Y40881D01*
X22695Y41341D01*
X21743Y41666D01*
X20753Y41848D01*
X19748Y41885D01*
X18749Y41775D01*
X17775Y41521D01*
X16850Y41127D01*
X15991Y40603D01*
X15218Y39960D01*
X14547Y39211D01*
X13992Y38372D01*
X13565Y37461D01*
X13275Y36498D01*
X13129Y35503D01*
Y34497D01*
X13275Y33502D01*
X13565Y32539D01*
X13992Y31628D01*
X14547Y30789D01*
X15218Y30040D01*
X15991Y29397D01*
X16850Y28873D01*
X17775Y28479D01*
X18749Y28225D01*
X19748Y28115D01*
X20754Y28152D01*
X21743Y28334D01*
X22695Y28659D01*
X23589Y29119D01*
X24407Y29704D01*
X25131Y30402D01*
X25746Y31198D01*
X26238Y32076D01*
X26598Y33015D01*
X26816Y33997D01*
X26890Y35000D01*
X141890Y184000D02*
X141816Y185003D01*
X141598Y185985D01*
X141238Y186924D01*
X140746Y187802D01*
X140131Y188598D01*
X139407Y189296D01*
X138589Y189881D01*
X137695Y190341D01*
X136743Y190666D01*
X135754Y190848D01*
X134748Y190885D01*
X133749Y190775D01*
X132775Y190521D01*
X131850Y190127D01*
X130991Y189603D01*
X130218Y188960D01*
X129547Y188211D01*
X128992Y187372D01*
X128565Y186461D01*
X128275Y185498D01*
X128129Y184503D01*
Y183497D01*
X128275Y182502D01*
X128565Y181539D01*
X128992Y180628D01*
X129547Y179789D01*
X130218Y179040D01*
X130991Y178397D01*
X131850Y177873D01*
X132775Y177479D01*
X133749Y177225D01*
X134748Y177115D01*
X135754Y177152D01*
X136743Y177334D01*
X137695Y177659D01*
X138589Y178119D01*
X139407Y178704D01*
X140131Y179402D01*
X140746Y180199D01*
X141238Y181076D01*
X141598Y182015D01*
X141816Y182997D01*
X141890Y184000D01*
X141816Y185003D01*
X141598Y185985D01*
X141238Y186924D01*
X140746Y187802D01*
X140131Y188598D01*
X139407Y189296D01*
X138589Y189881D01*
X137695Y190341D01*
X136743Y190666D01*
X135754Y190848D01*
X134748Y190885D01*
X133749Y190775D01*
X132775Y190521D01*
X131850Y190127D01*
X130991Y189603D01*
X130218Y188960D01*
X129547Y188211D01*
X128992Y187372D01*
X128565Y186461D01*
X128275Y185498D01*
X128129Y184503D01*
Y183497D01*
X128275Y182502D01*
X128565Y181539D01*
X128992Y180628D01*
X129547Y179789D01*
X130218Y179040D01*
X130991Y178397D01*
X131850Y177873D01*
X132775Y177479D01*
X133749Y177225D01*
X134748Y177115D01*
X135754Y177152D01*
X136743Y177334D01*
X137695Y177659D01*
X138589Y178119D01*
X139407Y178704D01*
X140131Y179402D01*
X140746Y180199D01*
X141238Y181076D01*
X141598Y182015D01*
X141816Y182997D01*
X141890Y184000D01*
X71811Y23189D02*
Y46811D01*
X48189D02*
X71811D01*
X48189Y23189D02*
Y46811D01*
Y23189D02*
X71811D01*
Y46811D01*
X48189D02*
X71811D01*
X48189Y23189D02*
Y46811D01*
Y23189D02*
X71811D01*
X31811D02*
Y46811D01*
X8189D02*
X31811D01*
X8189Y23189D02*
Y46811D01*
Y23189D02*
X31811D01*
Y46811D01*
X8189D02*
X31811D01*
X8189Y23189D02*
Y46811D01*
Y23189D02*
X31811D01*
X123189Y195811D02*
X146811D01*
X123189Y172189D02*
Y195811D01*
Y172189D02*
X146811D01*
Y195811D01*
X123189D02*
X146811D01*
X123189Y172189D02*
Y195811D01*
Y172189D02*
X146811D01*
Y195811D01*
M02*
