M48
;Layer_Color=9474304
;FILE_FORMAT=2:5
INCH,TZ
;TYPE=PLATED
T1F00S00C0.02756
T2F00S00C0.03000
T3F00S00C0.03346
T4F00S00C0.03500
T5F00S00C0.03543
T6F00S00C0.04000
T7F00S00C0.04500
T8F00S00C0.05000
%
T01
X123000Y95000
Y115000
X153000
Y95000
X188000Y96898
Y109102
T02
X255000Y166000
X349000Y135000
X147000Y246000
X109000Y282000
X231000Y225000
X278000Y241000
T03
X330000Y55000
Y85000
X40000Y90000
X20000
Y120000
X40000
X168189Y237709
X198189
T04
X178000Y35000
Y45000
X188000
X198000
Y35000
X188000
Y55000
X178000
X198000
X288698
X298698
X308698
Y45000
Y35000
X298698
X288698
Y45000
X298698
X325000Y40000
X335000
X345000
Y20000
X335000
X325000
X308698Y65000
X298698
X288698
Y75000
X298698
X308698
Y85000
Y95000
X298698
X288698
Y105000
X298698
X308698
Y115000
X298698
X288698
Y125000
X298698
X308698
Y155000
X298698
X288698
Y165000
X298698
X308698
Y175000
X298698
X288698
Y185000
X298698
X308698
Y195000
X298698
X288698
Y205000
X298698
X308698
X367000Y201000
Y211000
Y191000
X298698Y85000
X288698
X198000
Y75000
X188000
X178000
Y65000
X188000
X198000
X188000Y85000
X178000
Y135000
Y145000
Y155000
Y165000
Y175000
Y185000
Y195000
Y205000
X188000
X198000
Y195000
X188000
Y185000
X198000
Y175000
X188000
Y165000
X198000
Y155000
X188000
Y145000
X198000
Y135000
X188000
Y215000
X178000
Y226000
X188000
X198000
Y215000
X203000Y295000
Y305000
Y315000
X193000
Y305000
Y295000
Y345000
Y355000
Y365000
X203000
Y355000
Y345000
X213000
Y355000
Y365000
Y315000
Y305000
Y295000
X278000
Y305000
Y315000
X288000
X298000
Y305000
X288000
Y295000
X298000
X337000Y292000
Y302000
Y282000
Y272000
Y262000
X367000Y241000
Y231000
Y221000
X308698Y225000
Y215000
X298698
X288698
Y225000
X298698
X301000Y339000
Y349000
X291000
X281000
Y339000
X291000
X297000Y380000
X307000
X317000
X327000
X337000
X269000
X259000
X249000
X239000
X229000
T05
X213000Y35000
Y45000
Y55000
X273000
Y45000
Y35000
Y65000
Y75000
Y85000
Y95000
Y105000
Y115000
Y125000
Y135000
Y145000
Y155000
Y165000
Y175000
Y185000
Y195000
Y205000
X213000
Y195000
Y185000
Y175000
Y165000
Y155000
Y145000
Y135000
Y125000
Y115000
Y105000
Y95000
Y85000
Y75000
Y65000
Y215000
Y225000
X273000
Y215000
X262646Y295000
Y305000
Y315000
Y325000
Y335000
Y345000
Y355000
Y365000
X228000
Y355000
Y345000
Y335000
Y325000
Y315000
Y305000
Y295000
T06
X97000Y208000
Y218000
Y228000
Y238000
Y248000
Y258000
Y268000
Y278000
Y288000
Y298000
Y308000
Y318000
Y328000
Y338000
Y348000
Y358000
T07
X370000Y20000
Y40000
Y60000
Y80000
Y100000
Y120000
X367000Y318000
Y338000
Y359000
Y379000
X170000Y370000
X150000
X130000
T08
X330000Y105000
X340000
M30
