G04*
G04 #@! TF.GenerationSoftware,Altium Limited,Altium Designer,18.1.7 (191)*
G04*
G04 Layer_Color=16711935*
%FSLAX25Y25*%
%MOIN*%
G70*
G01*
G75*
%ADD16C,0.00394*%
D16*
X188000Y370000D02*
X218000D01*
Y360000D02*
Y370000D01*
X188000Y360000D02*
X218000D01*
X188000D02*
Y370000D01*
X332000Y257000D02*
Y307000D01*
X342000D01*
Y257000D02*
Y307000D01*
X332000Y257000D02*
X342000D01*
X188000Y350000D02*
X218000D01*
X188000D02*
Y360000D01*
X218000D01*
Y350000D02*
Y360000D01*
X188000Y340000D02*
X218000D01*
X188000D02*
Y350000D01*
X218000D01*
Y340000D02*
Y350000D01*
X188000Y310000D02*
X218000D01*
X188000D02*
Y320000D01*
X218000D01*
Y310000D02*
Y320000D01*
X188000Y300000D02*
X218000D01*
X188000D02*
Y310000D01*
X218000D01*
Y300000D02*
Y310000D01*
X188000Y290000D02*
X218000D01*
X188000D02*
Y300000D01*
X218000D01*
Y290000D02*
Y300000D01*
X276000Y344000D02*
X306000D01*
X276000D02*
Y354000D01*
X306000D01*
Y344000D02*
Y354000D01*
X276000Y334000D02*
X306000D01*
X276000D02*
Y344000D01*
X306000D01*
Y334000D02*
Y344000D01*
X273000Y310000D02*
X303000D01*
X273000D02*
Y320000D01*
X303000D01*
Y310000D02*
Y320000D01*
X273000Y300000D02*
X303000D01*
X273000D02*
Y310000D01*
X303000D01*
Y300000D02*
Y310000D01*
X273000Y290000D02*
X303000D01*
X273000D02*
Y300000D01*
X303000D01*
Y290000D02*
Y300000D01*
X292000Y375000D02*
X342000D01*
X292000D02*
Y385000D01*
X342000D01*
Y375000D02*
Y385000D01*
X224000Y375000D02*
X274000D01*
X224000D02*
Y385000D01*
X274000D01*
Y375000D02*
Y385000D01*
X320000Y15000D02*
X350000D01*
X320000D02*
Y25000D01*
X350000D01*
Y15000D02*
Y25000D01*
X320000Y35000D02*
X350000D01*
X320000D02*
Y45000D01*
X350000D01*
Y35000D02*
Y45000D01*
X173000Y221000D02*
Y231000D01*
Y221000D02*
X203000D01*
Y231000D01*
X173000D02*
X203000D01*
X313698Y210000D02*
Y220000D01*
X283698D02*
X313698D01*
X283698Y210000D02*
Y220000D01*
Y210000D02*
X313698D01*
Y220000D02*
Y230000D01*
X283698D02*
X313698D01*
X283698Y220000D02*
Y230000D01*
Y220000D02*
X313698D01*
X203000Y70000D02*
Y80000D01*
X173000D02*
X203000D01*
X173000Y70000D02*
Y80000D01*
Y70000D02*
X203000D01*
Y200000D02*
Y210000D01*
X173000D02*
X203000D01*
X173000Y200000D02*
Y210000D01*
Y200000D02*
X203000D01*
Y40000D02*
Y50000D01*
X173000D02*
X203000D01*
X173000Y40000D02*
Y50000D01*
Y40000D02*
X203000D01*
Y60000D02*
Y70000D01*
X173000D02*
X203000D01*
X173000Y60000D02*
Y70000D01*
Y60000D02*
X203000D01*
Y190000D02*
Y200000D01*
X173000D02*
X203000D01*
X173000Y190000D02*
Y200000D01*
Y190000D02*
X203000D01*
Y30000D02*
Y40000D01*
X173000D02*
X203000D01*
X173000Y30000D02*
Y40000D01*
Y30000D02*
X203000D01*
Y50000D02*
Y60000D01*
X173000D02*
X203000D01*
X173000Y50000D02*
Y60000D01*
Y50000D02*
X203000D01*
Y180000D02*
Y190000D01*
X173000D02*
X203000D01*
X173000Y180000D02*
Y190000D01*
Y180000D02*
X203000D01*
X313698Y30000D02*
Y40000D01*
X283698D02*
X313698D01*
X283698Y30000D02*
Y40000D01*
Y30000D02*
X313698D01*
Y50000D02*
Y60000D01*
X283698D02*
X313698D01*
X283698Y50000D02*
Y60000D01*
Y50000D02*
X313698D01*
X203000Y170000D02*
Y180000D01*
X173000D02*
X203000D01*
X173000Y170000D02*
Y180000D01*
Y170000D02*
X203000D01*
X313698Y40000D02*
Y50000D01*
X283698D02*
X313698D01*
X283698Y40000D02*
Y50000D01*
Y40000D02*
X313698D01*
Y60000D02*
Y70000D01*
X283698D02*
X313698D01*
X283698Y60000D02*
Y70000D01*
Y60000D02*
X313698D01*
X203000Y160000D02*
Y170000D01*
X173000D02*
X203000D01*
X173000Y160000D02*
Y170000D01*
Y160000D02*
X203000D01*
X313698Y90000D02*
Y100000D01*
X283698D02*
X313698D01*
X283698Y90000D02*
Y100000D01*
Y90000D02*
X313698D01*
Y70000D02*
Y80000D01*
X283698D02*
X313698D01*
X283698Y70000D02*
Y80000D01*
Y70000D02*
X313698D01*
Y150000D02*
Y160000D01*
X283698D02*
X313698D01*
X283698Y150000D02*
Y160000D01*
Y150000D02*
X313698D01*
Y100000D02*
Y110000D01*
X283698D02*
X313698D01*
X283698Y100000D02*
Y110000D01*
Y100000D02*
X313698D01*
Y80000D02*
Y90000D01*
X283698D02*
X313698D01*
X283698Y80000D02*
Y90000D01*
Y80000D02*
X313698D01*
Y160000D02*
Y170000D01*
X283698D02*
X313698D01*
X283698Y160000D02*
Y170000D01*
Y160000D02*
X313698D01*
Y110000D02*
Y120000D01*
X283698D02*
X313698D01*
X283698Y110000D02*
Y120000D01*
Y110000D02*
X313698D01*
Y170000D02*
Y180000D01*
X283698D02*
X313698D01*
X283698Y170000D02*
Y180000D01*
Y170000D02*
X313698D01*
Y120000D02*
Y130000D01*
X283698D02*
X313698D01*
X283698Y120000D02*
Y130000D01*
Y120000D02*
X313698D01*
Y180000D02*
Y190000D01*
X283698D02*
X313698D01*
X283698Y180000D02*
Y190000D01*
Y180000D02*
X313698D01*
X203000Y150000D02*
Y160000D01*
X173000D02*
X203000D01*
X173000Y150000D02*
Y160000D01*
Y150000D02*
X203000D01*
X313698Y190000D02*
Y200000D01*
X283698D02*
X313698D01*
X283698Y190000D02*
Y200000D01*
Y190000D02*
X313698D01*
X203000Y140000D02*
Y150000D01*
X173000D02*
X203000D01*
X173000Y140000D02*
Y150000D01*
Y140000D02*
X203000D01*
X313698Y200000D02*
Y210000D01*
X283698D02*
X313698D01*
X283698Y200000D02*
Y210000D01*
Y200000D02*
X313698D01*
X203000Y130000D02*
Y140000D01*
X173000D02*
X203000D01*
X173000Y130000D02*
Y140000D01*
Y130000D02*
X203000D01*
Y80000D02*
Y90000D01*
X173000D02*
X203000D01*
X173000Y80000D02*
Y90000D01*
Y80000D02*
X203000D01*
Y210000D02*
Y220000D01*
X173000D02*
X203000D01*
X173000Y210000D02*
Y220000D01*
Y210000D02*
X203000D01*
M02*
