G04*
G04 #@! TF.GenerationSoftware,Altium Limited,Altium Designer,18.1.7 (191)*
G04*
G04 Layer_Physical_Order=2*
G04 Layer_Color=16711680*
%FSLAX25Y25*%
%MOIN*%
G70*
G01*
G75*
%ADD35C,0.05512*%
%ADD36R,0.06000X0.06000*%
%ADD37C,0.06000*%
%ADD38C,0.04921*%
%ADD39C,0.05512*%
%ADD40C,0.07000*%
%ADD41C,0.08000*%
%ADD42C,0.05118*%
%ADD43C,0.04724*%
%ADD44C,0.05906*%
%ADD45R,0.05906X0.05906*%
D35*
X148480Y218000D02*
X168189Y237709D01*
X97000Y218000D02*
X148480D01*
X20000Y120000D02*
X40000D01*
X60000Y348000D02*
X97000D01*
X40000Y328000D02*
X60000Y348000D01*
X40000Y120000D02*
Y328000D01*
X154039Y23961D02*
X230961D01*
X77961Y100039D02*
X154039Y23961D01*
X77961Y100039D02*
Y238961D01*
X147000Y9000D02*
X147520D01*
X144421D02*
X147000D01*
X70480Y93520D02*
X147520Y16480D01*
X243902D01*
X147000Y9000D02*
X247000Y9000D01*
X63000Y90421D02*
X144421Y9000D01*
X247000Y9000D02*
X273000Y35000D01*
X70000Y324000D02*
X74000Y328000D01*
X70000Y298579D02*
Y324000D01*
Y298579D02*
X70000D01*
X63000Y291579D02*
X70000Y298579D01*
X63000Y90421D02*
Y291579D01*
X70480Y288480D02*
X90000Y308000D01*
X70480Y93520D02*
Y288480D01*
X77961Y238961D02*
X87000Y248000D01*
X97000D01*
X90000Y308000D02*
X97000D01*
X98631Y348000D02*
X148000D01*
X97000D02*
X98631D01*
X148000D02*
X170000Y370000D01*
X351000Y302000D02*
X367000Y318000D01*
X337000Y302000D02*
X351000D01*
X337000Y292000D02*
Y302000D01*
Y282000D02*
Y292000D01*
Y272000D02*
Y282000D01*
Y262000D02*
Y272000D01*
X367000Y338000D02*
X388500Y316500D01*
Y233000D02*
Y316500D01*
X367000Y289000D02*
Y318000D01*
Y289000D02*
X377000Y279000D01*
X350500Y318000D02*
X367000D01*
X327000D02*
X350500D01*
Y342500D02*
X367000Y359000D01*
X350500Y318000D02*
Y342500D01*
X320000Y325000D02*
X327000Y318000D01*
X262646Y325000D02*
X320000D01*
X269820Y232820D02*
X278000Y241000D01*
X269820Y232677D02*
Y232820D01*
X265323Y228180D02*
X269820Y232677D01*
X265323Y228000D02*
Y228180D01*
X262323Y225000D02*
X265323Y228000D01*
X231000Y225000D02*
X262323D01*
X350000Y221000D02*
X367000D01*
X349000Y220000D02*
X350000Y221000D01*
X340000Y105000D02*
X349000Y114000D01*
Y135000D01*
X367000Y221000D02*
X373000D01*
X377000Y225000D01*
X98631Y348000D02*
X109000Y337631D01*
Y282000D02*
Y337631D01*
X377000Y225000D02*
Y279000D01*
X349000Y135000D02*
Y220000D01*
X219000Y269000D02*
X222000Y266000D01*
Y141000D02*
Y266000D01*
Y141000D02*
X248000Y115000D01*
X265323Y125000D02*
X273000D01*
X255000Y135323D02*
X265323Y125000D01*
X255000Y135323D02*
Y166000D01*
X129000Y228000D02*
X147000Y246000D01*
X97000Y228000D02*
X129000D01*
X97000D02*
X98000Y227000D01*
X248000Y115000D02*
X273000D01*
X139000Y269000D02*
X219000D01*
X108000Y238000D02*
X139000Y269000D01*
X97000Y238000D02*
X108000D01*
X261000Y105000D02*
X273000D01*
X253000Y97000D02*
X261000Y105000D01*
X253000Y46000D02*
Y97000D01*
X230961Y23961D02*
X253000Y46000D01*
X123000Y277000D02*
X281000D01*
X104000Y258000D02*
X123000Y277000D01*
X97000Y258000D02*
X104000D01*
X281000Y277000D02*
X319000Y239000D01*
X308698Y95000D02*
X312000D01*
X319000Y102000D01*
Y239000D01*
X265323Y45000D02*
X273000D01*
X265323Y37902D02*
Y45000D01*
X243902Y16480D02*
X265323Y37902D01*
X74000Y328000D02*
X97000D01*
X340000Y105000D02*
X345000D01*
X370000Y80000D01*
Y60000D02*
X388500Y78500D01*
X388500Y233000D02*
X388500Y78500D01*
X153000Y115000D02*
X182102D01*
X188000Y109102D01*
X198000Y226000D02*
X198189Y226189D01*
D36*
X228000Y365000D02*
D03*
D37*
Y355000D02*
D03*
Y345000D02*
D03*
Y335000D02*
D03*
Y325000D02*
D03*
Y315000D02*
D03*
Y305000D02*
D03*
X262646D02*
D03*
Y315000D02*
D03*
Y325000D02*
D03*
Y335000D02*
D03*
Y345000D02*
D03*
Y355000D02*
D03*
Y365000D02*
D03*
X109000Y282000D02*
D03*
X349000Y135000D02*
D03*
X278000Y241000D02*
D03*
X231000Y225000D02*
D03*
X255000Y166000D02*
D03*
X147000Y246000D02*
D03*
D38*
X228000Y295000D02*
D03*
X262646D02*
D03*
D39*
X40000Y90000D02*
D03*
Y120000D02*
D03*
X20000D02*
D03*
Y90000D02*
D03*
X330000Y85000D02*
D03*
Y55000D02*
D03*
X198189Y237709D02*
D03*
X168189D02*
D03*
D40*
X193000Y365000D02*
D03*
X203000D02*
D03*
X213000D02*
D03*
X337000Y302000D02*
D03*
Y292000D02*
D03*
Y282000D02*
D03*
Y272000D02*
D03*
Y262000D02*
D03*
X97000Y338000D02*
D03*
Y208000D02*
D03*
Y218000D02*
D03*
Y228000D02*
D03*
Y238000D02*
D03*
Y248000D02*
D03*
Y258000D02*
D03*
Y268000D02*
D03*
Y278000D02*
D03*
Y288000D02*
D03*
Y298000D02*
D03*
Y308000D02*
D03*
Y318000D02*
D03*
Y328000D02*
D03*
Y348000D02*
D03*
Y358000D02*
D03*
X213000Y355000D02*
D03*
X203000D02*
D03*
X193000D02*
D03*
X213000Y345000D02*
D03*
X203000D02*
D03*
X193000D02*
D03*
X213000Y315000D02*
D03*
X203000D02*
D03*
X193000D02*
D03*
X213000Y305000D02*
D03*
X203000D02*
D03*
X193000D02*
D03*
X213000Y295000D02*
D03*
X203000D02*
D03*
X193000D02*
D03*
X301000Y349000D02*
D03*
X291000D02*
D03*
X281000D02*
D03*
X301000Y339000D02*
D03*
X291000D02*
D03*
X281000D02*
D03*
X298000Y315000D02*
D03*
X288000D02*
D03*
X278000D02*
D03*
X298000Y305000D02*
D03*
X288000D02*
D03*
X278000D02*
D03*
X298000Y295000D02*
D03*
X288000D02*
D03*
X278000D02*
D03*
X330000Y105000D02*
D03*
X340000D02*
D03*
X297000Y380000D02*
D03*
X307000D02*
D03*
X317000D02*
D03*
X327000D02*
D03*
X337000D02*
D03*
X229000D02*
D03*
X239000D02*
D03*
X249000D02*
D03*
X259000D02*
D03*
X269000D02*
D03*
X345000Y20000D02*
D03*
X335000D02*
D03*
X325000D02*
D03*
X345000Y40000D02*
D03*
X335000D02*
D03*
X325000D02*
D03*
X367000Y201000D02*
D03*
Y211000D02*
D03*
Y221000D02*
D03*
Y231000D02*
D03*
Y241000D02*
D03*
Y191000D02*
D03*
X198000Y226000D02*
D03*
X188000D02*
D03*
X178000D02*
D03*
X288698Y215000D02*
D03*
X298698D02*
D03*
X308698D02*
D03*
X288698Y225000D02*
D03*
X298698D02*
D03*
X308698D02*
D03*
X178000Y75000D02*
D03*
X188000D02*
D03*
X198000D02*
D03*
X178000Y205000D02*
D03*
X188000D02*
D03*
X198000D02*
D03*
X178000Y45000D02*
D03*
X188000D02*
D03*
X198000D02*
D03*
X178000Y65000D02*
D03*
X188000D02*
D03*
X198000D02*
D03*
X178000Y195000D02*
D03*
X188000D02*
D03*
X198000D02*
D03*
X178000Y35000D02*
D03*
X188000D02*
D03*
X198000D02*
D03*
X178000Y55000D02*
D03*
X188000D02*
D03*
X198000D02*
D03*
X178000Y185000D02*
D03*
X188000D02*
D03*
X198000D02*
D03*
X288698Y35000D02*
D03*
X298698D02*
D03*
X308698D02*
D03*
X288698Y55000D02*
D03*
X298698D02*
D03*
X308698D02*
D03*
X178000Y175000D02*
D03*
X188000D02*
D03*
X198000D02*
D03*
X288698Y45000D02*
D03*
X298698D02*
D03*
X308698D02*
D03*
X288698Y65000D02*
D03*
X298698D02*
D03*
X308698D02*
D03*
X178000Y165000D02*
D03*
X188000D02*
D03*
X198000D02*
D03*
X288698Y95000D02*
D03*
X298698D02*
D03*
X308698D02*
D03*
X288698Y75000D02*
D03*
X298698D02*
D03*
X308698D02*
D03*
X288698Y155000D02*
D03*
X298698D02*
D03*
X308698D02*
D03*
X288698Y105000D02*
D03*
X298698D02*
D03*
X308698D02*
D03*
X288698Y85000D02*
D03*
X298698D02*
D03*
X308698D02*
D03*
X288698Y165000D02*
D03*
X298698D02*
D03*
X308698D02*
D03*
X288698Y115000D02*
D03*
X298698D02*
D03*
X308698D02*
D03*
X288698Y175000D02*
D03*
X298698D02*
D03*
X308698D02*
D03*
X288698Y125000D02*
D03*
X298698D02*
D03*
X308698D02*
D03*
X288698Y185000D02*
D03*
X298698D02*
D03*
X308698D02*
D03*
X178000Y155000D02*
D03*
X188000D02*
D03*
X198000D02*
D03*
X288698Y195000D02*
D03*
X298698D02*
D03*
X308698D02*
D03*
X178000Y145000D02*
D03*
X188000D02*
D03*
X198000D02*
D03*
X288698Y205000D02*
D03*
X298698D02*
D03*
X308698D02*
D03*
X178000Y135000D02*
D03*
X188000D02*
D03*
X198000D02*
D03*
X178000Y85000D02*
D03*
X188000D02*
D03*
X198000D02*
D03*
X178000Y215000D02*
D03*
X188000D02*
D03*
X198000D02*
D03*
D41*
X170000Y370000D02*
D03*
X150000D02*
D03*
X130000D02*
D03*
X370000Y120000D02*
D03*
Y100000D02*
D03*
Y80000D02*
D03*
Y60000D02*
D03*
Y40000D02*
D03*
Y20000D02*
D03*
X367000Y318000D02*
D03*
Y338000D02*
D03*
Y359000D02*
D03*
Y379000D02*
D03*
D42*
X188000Y109102D02*
D03*
Y96898D02*
D03*
D43*
X153000Y95000D02*
D03*
X123000D02*
D03*
X153000Y115000D02*
D03*
X123000D02*
D03*
D44*
X273000Y35000D02*
D03*
Y45000D02*
D03*
Y55000D02*
D03*
Y65000D02*
D03*
Y75000D02*
D03*
Y85000D02*
D03*
Y95000D02*
D03*
Y105000D02*
D03*
Y115000D02*
D03*
Y125000D02*
D03*
Y135000D02*
D03*
Y145000D02*
D03*
Y155000D02*
D03*
Y165000D02*
D03*
Y175000D02*
D03*
Y185000D02*
D03*
Y195000D02*
D03*
Y205000D02*
D03*
Y215000D02*
D03*
Y225000D02*
D03*
X213000Y35000D02*
D03*
Y45000D02*
D03*
Y55000D02*
D03*
Y65000D02*
D03*
Y75000D02*
D03*
Y85000D02*
D03*
Y95000D02*
D03*
Y105000D02*
D03*
Y115000D02*
D03*
Y125000D02*
D03*
Y135000D02*
D03*
Y145000D02*
D03*
Y155000D02*
D03*
Y165000D02*
D03*
Y175000D02*
D03*
Y185000D02*
D03*
Y195000D02*
D03*
Y205000D02*
D03*
Y215000D02*
D03*
D45*
Y225000D02*
D03*
M02*
