G04*
G04 #@! TF.GenerationSoftware,Altium Limited,Altium Designer,18.1.7 (191)*
G04*
G04 Layer_Color=65535*
%FSLAX25Y25*%
%MOIN*%
G70*
G01*
G75*
%ADD10C,0.01500*%
%ADD11C,0.00500*%
%ADD12C,0.00787*%
%ADD13C,0.02362*%
%ADD14C,0.00984*%
%ADD15C,0.00700*%
%ADD16C,0.00394*%
%ADD17C,0.01968*%
%ADD18C,0.00400*%
%ADD19C,0.01181*%
%ADD20C,0.01000*%
D10*
X220500Y365000D02*
X219750Y365433D01*
Y364567D01*
X220500Y365000D01*
D11*
X66890Y35000D02*
X66816Y36003D01*
X66598Y36985D01*
X66238Y37924D01*
X65746Y38802D01*
X65131Y39598D01*
X64407Y40296D01*
X63589Y40881D01*
X62695Y41341D01*
X61743Y41666D01*
X60754Y41848D01*
X59748Y41885D01*
X58749Y41775D01*
X57775Y41521D01*
X56850Y41127D01*
X55991Y40603D01*
X55218Y39960D01*
X54547Y39211D01*
X53992Y38372D01*
X53565Y37461D01*
X53275Y36498D01*
X53129Y35503D01*
Y34497D01*
X53275Y33502D01*
X53565Y32539D01*
X53992Y31628D01*
X54547Y30789D01*
X55218Y30040D01*
X55991Y29397D01*
X56850Y28873D01*
X57775Y28479D01*
X58749Y28225D01*
X59748Y28115D01*
X60754Y28152D01*
X61743Y28334D01*
X62695Y28659D01*
X63589Y29119D01*
X64407Y29704D01*
X65131Y30402D01*
X65746Y31198D01*
X66238Y32076D01*
X66598Y33015D01*
X66816Y33997D01*
X66890Y35000D01*
X26890D02*
X26816Y36003D01*
X26598Y36985D01*
X26238Y37924D01*
X25746Y38802D01*
X25131Y39598D01*
X24407Y40296D01*
X23589Y40881D01*
X22695Y41341D01*
X21743Y41666D01*
X20753Y41848D01*
X19748Y41885D01*
X18749Y41775D01*
X17775Y41521D01*
X16850Y41127D01*
X15991Y40603D01*
X15218Y39960D01*
X14547Y39211D01*
X13992Y38372D01*
X13565Y37461D01*
X13275Y36498D01*
X13129Y35503D01*
Y34497D01*
X13275Y33502D01*
X13565Y32539D01*
X13992Y31628D01*
X14547Y30789D01*
X15218Y30040D01*
X15991Y29397D01*
X16850Y28873D01*
X17775Y28479D01*
X18749Y28225D01*
X19748Y28115D01*
X20754Y28152D01*
X21743Y28334D01*
X22695Y28659D01*
X23589Y29119D01*
X24407Y29704D01*
X25131Y30402D01*
X25746Y31198D01*
X26238Y32076D01*
X26598Y33015D01*
X26816Y33997D01*
X26890Y35000D01*
X344500Y135500D02*
X344448Y136493D01*
X344292Y137475D01*
X344035Y138436D01*
X343679Y139364D01*
X343227Y140250D01*
X342686Y141084D01*
X342060Y141857D01*
X341357Y142560D01*
X340584Y143186D01*
X339750Y143727D01*
X338864Y144179D01*
X337936Y144535D01*
X336975Y144792D01*
X335993Y144948D01*
X335000Y145000D01*
X334007Y144948D01*
X333025Y144792D01*
X332064Y144535D01*
X331136Y144179D01*
X330250Y143727D01*
X329416Y143186D01*
X328643Y142560D01*
X327940Y141857D01*
X327314Y141084D01*
X326773Y140250D01*
X326321Y139364D01*
X325965Y138436D01*
X325708Y137475D01*
X325552Y136493D01*
X325500Y135500D01*
X141890Y184000D02*
X141816Y185003D01*
X141598Y185985D01*
X141238Y186924D01*
X140746Y187802D01*
X140131Y188598D01*
X139407Y189296D01*
X138589Y189881D01*
X137695Y190341D01*
X136743Y190666D01*
X135754Y190848D01*
X134748Y190885D01*
X133749Y190775D01*
X132775Y190521D01*
X131850Y190127D01*
X130991Y189603D01*
X130218Y188960D01*
X129547Y188211D01*
X128992Y187372D01*
X128565Y186461D01*
X128275Y185498D01*
X128129Y184503D01*
Y183497D01*
X128275Y182502D01*
X128565Y181539D01*
X128992Y180628D01*
X129547Y179789D01*
X130218Y179040D01*
X130991Y178397D01*
X131850Y177873D01*
X132775Y177479D01*
X133749Y177225D01*
X134748Y177115D01*
X135754Y177152D01*
X136743Y177334D01*
X137695Y177659D01*
X138589Y178119D01*
X139407Y178704D01*
X140131Y179402D01*
X140746Y180199D01*
X141238Y181076D01*
X141598Y182015D01*
X141816Y182997D01*
X141890Y184000D01*
X48189Y23189D02*
X71811D01*
X48189D02*
Y46811D01*
X71811D01*
Y23189D02*
Y46811D01*
X8189Y23189D02*
X31811D01*
X8189D02*
Y46811D01*
X31811D01*
Y23189D02*
Y46811D01*
X347000Y90000D02*
Y125500D01*
X323000D02*
X347000D01*
X323000Y90000D02*
Y125500D01*
X344500D02*
Y135500D01*
X325500Y125500D02*
Y135500D01*
X342500Y90000D02*
X347000D01*
X342500D02*
Y100000D01*
X327500D02*
X342500D01*
X327500Y90000D02*
Y100000D01*
X323000Y90000D02*
X327500D01*
X357000Y245000D02*
X361000Y241000D01*
X357000Y237000D02*
X361000Y241000D01*
X146811Y172189D02*
Y195811D01*
X123189Y172189D02*
X146811D01*
X123189D02*
Y195811D01*
X146811D01*
D12*
X51535Y10394D02*
X50748D01*
X51535D01*
X11535D02*
X10748D01*
X11535D01*
X183976Y107548D02*
X183252Y106794D01*
X182667Y105927D01*
X182239Y104973D01*
X181980Y103961D01*
X181898Y102918D01*
X181994Y101877D01*
X182268Y100868D01*
X182709Y99920D01*
X183306Y99062D01*
X184040Y98318D01*
X191960Y98357D02*
X192694Y99101D01*
X193291Y99960D01*
X193732Y100907D01*
X194006Y101917D01*
X194102Y102958D01*
X194020Y104000D01*
X193761Y105013D01*
X193333Y105966D01*
X192748Y106833D01*
X192024Y107588D01*
X160000Y175142D02*
X159213D01*
X160000D01*
X240500Y235709D02*
X240690Y234752D01*
X241232Y233941D01*
X242043Y233399D01*
X243000Y233209D01*
X243957Y233399D01*
X244768Y233941D01*
X245310Y234752D01*
X245500Y235709D01*
X40000Y95000D02*
X43000D01*
Y115000D01*
X37000D02*
X43000D01*
X37000Y95000D02*
Y115000D01*
Y95000D02*
X40000D01*
Y115000D02*
Y115900D01*
Y94100D02*
Y95000D01*
X17000Y115000D02*
X20000D01*
X17000Y95000D02*
Y115000D01*
Y95000D02*
X23000D01*
Y115000D01*
X20000D02*
X23000D01*
X20000Y94100D02*
Y95000D01*
Y115000D02*
Y115900D01*
X327000Y80000D02*
X330000D01*
X327000Y60000D02*
Y80000D01*
Y60000D02*
X333000D01*
Y80000D01*
X330000D02*
X333000D01*
X330000Y59100D02*
Y60000D01*
Y80000D02*
Y80900D01*
X160500Y87500D02*
Y102500D01*
X115500Y87500D02*
X160500D01*
X115500D02*
Y102500D01*
X160500D01*
Y107500D02*
Y122500D01*
X115500Y107500D02*
X160500D01*
X115500D02*
Y122500D01*
X160500D01*
X193189Y237709D02*
Y240709D01*
X173189D02*
X193189D01*
X173189Y234709D02*
Y240709D01*
Y234709D02*
X193189D01*
Y237709D01*
X172289D02*
X173189D01*
X193189D02*
X194089D01*
X217606Y24291D02*
X268394D01*
X245500Y235709D02*
X268394D01*
X217606D02*
X240500D01*
X268394Y24291D02*
Y235709D01*
X217606Y24291D02*
Y235709D01*
X155000Y32500D02*
Y37223D01*
X157361D01*
X158149Y36436D01*
Y34861D01*
X157361Y34074D01*
X155000D01*
X156574D02*
X158149Y32500D01*
X159723Y37223D02*
Y32500D01*
X162084D01*
X162872Y33287D01*
Y36436D01*
X162084Y37223D01*
X159723D01*
X164446Y32500D02*
X166020D01*
X165233D01*
Y37223D01*
X164446Y36436D01*
X155000Y42500D02*
Y47223D01*
X157361D01*
X158149Y46436D01*
Y44861D01*
X157361Y44074D01*
X155000D01*
X156574D02*
X158149Y42500D01*
X159723Y47223D02*
Y42500D01*
X162084D01*
X162872Y43287D01*
Y46436D01*
X162084Y47223D01*
X159723D01*
X164446Y46436D02*
X165233Y47223D01*
X166807D01*
X167594Y46436D01*
Y43287D01*
X166807Y42500D01*
X165233D01*
X164446Y43287D01*
Y46436D01*
X155000Y52500D02*
Y57223D01*
X157361D01*
X158149Y56436D01*
Y54861D01*
X157361Y54074D01*
X155000D01*
X156574D02*
X158149Y52500D01*
X162872Y56436D02*
X162084Y57223D01*
X160510D01*
X159723Y56436D01*
Y53287D01*
X160510Y52500D01*
X162084D01*
X162872Y53287D01*
X164446Y56436D02*
X165233Y57223D01*
X166807D01*
X167594Y56436D01*
Y55649D01*
X166807Y54861D01*
X166020D01*
X166807D01*
X167594Y54074D01*
Y53287D01*
X166807Y52500D01*
X165233D01*
X164446Y53287D01*
X155000Y62500D02*
Y67223D01*
X157361D01*
X158149Y66436D01*
Y64861D01*
X157361Y64074D01*
X155000D01*
X156574D02*
X158149Y62500D01*
X162872Y66436D02*
X162084Y67223D01*
X160510D01*
X159723Y66436D01*
Y63287D01*
X160510Y62500D01*
X162084D01*
X162872Y63287D01*
X167594Y62500D02*
X164446D01*
X167594Y65649D01*
Y66436D01*
X166807Y67223D01*
X165233D01*
X164446Y66436D01*
X155000Y72500D02*
Y77223D01*
X157361D01*
X158149Y76436D01*
Y74861D01*
X157361Y74074D01*
X155000D01*
X156574D02*
X158149Y72500D01*
X162872Y76436D02*
X162084Y77223D01*
X160510D01*
X159723Y76436D01*
Y73287D01*
X160510Y72500D01*
X162084D01*
X162872Y73287D01*
X164446Y72500D02*
X166020D01*
X165233D01*
Y77223D01*
X164446Y76436D01*
X155000Y82500D02*
Y87223D01*
X157361D01*
X158149Y86436D01*
Y84861D01*
X157361Y84074D01*
X155000D01*
X156574D02*
X158149Y82500D01*
X162872Y86436D02*
X162084Y87223D01*
X160510D01*
X159723Y86436D01*
Y83287D01*
X160510Y82500D01*
X162084D01*
X162872Y83287D01*
X164446Y86436D02*
X165233Y87223D01*
X166807D01*
X167594Y86436D01*
Y83287D01*
X166807Y82500D01*
X165233D01*
X164446Y83287D01*
Y86436D01*
X155000Y132500D02*
Y137223D01*
X157361D01*
X158149Y136436D01*
Y134861D01*
X157361Y134074D01*
X155000D01*
X156574D02*
X158149Y132500D01*
X162872Y137223D02*
X159723D01*
Y132500D01*
X162872D01*
X159723Y134861D02*
X161297D01*
X167594Y132500D02*
X164446D01*
X167594Y135649D01*
Y136436D01*
X166807Y137223D01*
X165233D01*
X164446Y136436D01*
X155000Y142500D02*
Y147223D01*
X157361D01*
X158149Y146436D01*
Y144861D01*
X157361Y144074D01*
X155000D01*
X156574D02*
X158149Y142500D01*
X162872Y147223D02*
X159723D01*
Y142500D01*
X162872D01*
X159723Y144861D02*
X161297D01*
X164446Y142500D02*
X166020D01*
X165233D01*
Y147223D01*
X164446Y146436D01*
X155000Y152500D02*
Y157223D01*
X157361D01*
X158149Y156436D01*
Y154861D01*
X157361Y154074D01*
X155000D01*
X156574D02*
X158149Y152500D01*
X162872Y157223D02*
X159723D01*
Y152500D01*
X162872D01*
X159723Y154861D02*
X161297D01*
X164446Y156436D02*
X165233Y157223D01*
X166807D01*
X167594Y156436D01*
Y153287D01*
X166807Y152500D01*
X165233D01*
X164446Y153287D01*
Y156436D01*
X155000Y162500D02*
Y167223D01*
X157361D01*
X158149Y166436D01*
Y164861D01*
X157361Y164074D01*
X155000D01*
X156574D02*
X158149Y162500D01*
X159723D02*
Y165649D01*
X161297Y167223D01*
X162872Y165649D01*
Y162500D01*
Y164861D01*
X159723D01*
X167594Y167223D02*
X164446D01*
Y164861D01*
X166020Y165649D01*
X166807D01*
X167594Y164861D01*
Y163287D01*
X166807Y162500D01*
X165233D01*
X164446Y163287D01*
X159606Y172500D02*
Y177223D01*
X161968D01*
X162755Y176436D01*
Y174861D01*
X161968Y174074D01*
X159606D01*
X161181D02*
X162755Y172500D01*
X164329D02*
Y175649D01*
X165903Y177223D01*
X167478Y175649D01*
Y172500D01*
Y174861D01*
X164329D01*
X171414Y172500D02*
Y177223D01*
X169052Y174861D01*
X172201D01*
X155000Y182500D02*
Y187223D01*
X157361D01*
X158149Y186436D01*
Y184861D01*
X157361Y184074D01*
X155000D01*
X156574D02*
X158149Y182500D01*
X159723D02*
Y185649D01*
X161297Y187223D01*
X162872Y185649D01*
Y182500D01*
Y184861D01*
X159723D01*
X164446Y186436D02*
X165233Y187223D01*
X166807D01*
X167594Y186436D01*
Y185649D01*
X166807Y184861D01*
X166020D01*
X166807D01*
X167594Y184074D01*
Y183287D01*
X166807Y182500D01*
X165233D01*
X164446Y183287D01*
X155000Y192500D02*
Y197223D01*
X157361D01*
X158149Y196436D01*
Y194861D01*
X157361Y194074D01*
X155000D01*
X156574D02*
X158149Y192500D01*
X159723D02*
Y195649D01*
X161297Y197223D01*
X162872Y195649D01*
Y192500D01*
Y194861D01*
X159723D01*
X167594Y192500D02*
X164446D01*
X167594Y195649D01*
Y196436D01*
X166807Y197223D01*
X165233D01*
X164446Y196436D01*
X155000Y202500D02*
Y207223D01*
X157361D01*
X158149Y206436D01*
Y204861D01*
X157361Y204074D01*
X155000D01*
X156574D02*
X158149Y202500D01*
X159723D02*
Y205649D01*
X161297Y207223D01*
X162872Y205649D01*
Y202500D01*
Y204861D01*
X159723D01*
X164446Y202500D02*
X166020D01*
X165233D01*
Y207223D01*
X164446Y206436D01*
X155000Y212500D02*
Y217223D01*
X157361D01*
X158149Y216436D01*
Y214861D01*
X157361Y214074D01*
X155000D01*
X156574D02*
X158149Y212500D01*
X159723D02*
Y215649D01*
X161297Y217223D01*
X162872Y215649D01*
Y212500D01*
Y214861D01*
X159723D01*
X164446Y216436D02*
X165233Y217223D01*
X166807D01*
X167594Y216436D01*
Y213287D01*
X166807Y212500D01*
X165233D01*
X164446Y213287D01*
Y216436D01*
X153000Y222500D02*
Y227223D01*
X154574Y225649D01*
X156149Y227223D01*
Y222500D01*
X160872Y226436D02*
X160084Y227223D01*
X158510D01*
X157723Y226436D01*
Y223287D01*
X158510Y222500D01*
X160084D01*
X160872Y223287D01*
X162446Y227223D02*
Y222500D01*
X165594D01*
X167169D02*
Y227223D01*
X169530D01*
X170317Y226436D01*
Y224861D01*
X169530Y224074D01*
X167169D01*
X168743D02*
X170317Y222500D01*
X317000D02*
Y227223D01*
X319361D01*
X320149Y226436D01*
Y224861D01*
X319361Y224074D01*
X317000D01*
X318574D02*
X320149Y222500D01*
X321723Y227223D02*
Y222500D01*
X324084D01*
X324871Y223287D01*
Y224074D01*
X324084Y224861D01*
X321723D01*
X324084D01*
X324871Y225649D01*
Y226436D01*
X324084Y227223D01*
X321723D01*
X326446D02*
X329594D01*
Y226436D01*
X326446Y223287D01*
Y222500D01*
X317000Y212500D02*
Y217223D01*
X319361D01*
X320149Y216436D01*
Y214861D01*
X319361Y214074D01*
X317000D01*
X318574D02*
X320149Y212500D01*
X321723Y217223D02*
Y212500D01*
X324084D01*
X324871Y213287D01*
Y214074D01*
X324084Y214861D01*
X321723D01*
X324084D01*
X324871Y215649D01*
Y216436D01*
X324084Y217223D01*
X321723D01*
X329594D02*
X328020Y216436D01*
X326446Y214861D01*
Y213287D01*
X327233Y212500D01*
X328807D01*
X329594Y213287D01*
Y214074D01*
X328807Y214861D01*
X326446D01*
X317000Y202500D02*
Y207223D01*
X319361D01*
X320149Y206436D01*
Y204861D01*
X319361Y204074D01*
X317000D01*
X318574D02*
X320149Y202500D01*
X321723Y207223D02*
Y202500D01*
X324084D01*
X324871Y203287D01*
Y204074D01*
X324084Y204861D01*
X321723D01*
X324084D01*
X324871Y205649D01*
Y206436D01*
X324084Y207223D01*
X321723D01*
X329594D02*
X326446D01*
Y204861D01*
X328020Y205649D01*
X328807D01*
X329594Y204861D01*
Y203287D01*
X328807Y202500D01*
X327233D01*
X326446Y203287D01*
X317000Y192500D02*
Y197223D01*
X319361D01*
X320149Y196436D01*
Y194861D01*
X319361Y194074D01*
X317000D01*
X318574D02*
X320149Y192500D01*
X321723Y197223D02*
Y192500D01*
X324084D01*
X324871Y193287D01*
Y194074D01*
X324084Y194861D01*
X321723D01*
X324084D01*
X324871Y195649D01*
Y196436D01*
X324084Y197223D01*
X321723D01*
X328807Y192500D02*
Y197223D01*
X326446Y194861D01*
X329594D01*
X317000Y182500D02*
Y187223D01*
X319361D01*
X320149Y186436D01*
Y184861D01*
X319361Y184074D01*
X317000D01*
X318574D02*
X320149Y182500D01*
X321723Y187223D02*
Y182500D01*
X324084D01*
X324871Y183287D01*
Y184074D01*
X324084Y184861D01*
X321723D01*
X324084D01*
X324871Y185649D01*
Y186436D01*
X324084Y187223D01*
X321723D01*
X326446Y186436D02*
X327233Y187223D01*
X328807D01*
X329594Y186436D01*
Y185649D01*
X328807Y184861D01*
X328020D01*
X328807D01*
X329594Y184074D01*
Y183287D01*
X328807Y182500D01*
X327233D01*
X326446Y183287D01*
X317000Y172500D02*
Y177223D01*
X319361D01*
X320149Y176436D01*
Y174861D01*
X319361Y174074D01*
X317000D01*
X318574D02*
X320149Y172500D01*
X321723Y177223D02*
Y172500D01*
X324084D01*
X324871Y173287D01*
Y174074D01*
X324084Y174861D01*
X321723D01*
X324084D01*
X324871Y175649D01*
Y176436D01*
X324084Y177223D01*
X321723D01*
X329594Y172500D02*
X326446D01*
X329594Y175649D01*
Y176436D01*
X328807Y177223D01*
X327233D01*
X326446Y176436D01*
X317000Y162500D02*
Y167223D01*
X319361D01*
X320149Y166436D01*
Y164861D01*
X319361Y164074D01*
X317000D01*
X318574D02*
X320149Y162500D01*
X321723Y167223D02*
Y162500D01*
X324084D01*
X324871Y163287D01*
Y164074D01*
X324084Y164861D01*
X321723D01*
X324084D01*
X324871Y165649D01*
Y166436D01*
X324084Y167223D01*
X321723D01*
X326446Y162500D02*
X328020D01*
X327233D01*
Y167223D01*
X326446Y166436D01*
X317000Y152500D02*
Y157223D01*
X319361D01*
X320149Y156436D01*
Y154861D01*
X319361Y154074D01*
X317000D01*
X318574D02*
X320149Y152500D01*
X321723Y157223D02*
Y152500D01*
X324084D01*
X324871Y153287D01*
Y154074D01*
X324084Y154861D01*
X321723D01*
X324084D01*
X324871Y155649D01*
Y156436D01*
X324084Y157223D01*
X321723D01*
X326446Y156436D02*
X327233Y157223D01*
X328807D01*
X329594Y156436D01*
Y153287D01*
X328807Y152500D01*
X327233D01*
X326446Y153287D01*
Y156436D01*
X315000Y32500D02*
Y37223D01*
X317361D01*
X318149Y36436D01*
Y34861D01*
X317361Y34074D01*
X315000D01*
X316574D02*
X318149Y32500D01*
X319723Y37223D02*
Y32500D01*
X322084D01*
X322871Y33287D01*
Y36436D01*
X322084Y37223D01*
X319723D01*
X327594Y32500D02*
X324446D01*
X327594Y35649D01*
Y36436D01*
X326807Y37223D01*
X325233D01*
X324446Y36436D01*
X315000Y42500D02*
Y47223D01*
X317361D01*
X318149Y46436D01*
Y44861D01*
X317361Y44074D01*
X315000D01*
X316574D02*
X318149Y42500D01*
X319723Y47223D02*
Y42500D01*
X322084D01*
X322871Y43287D01*
Y46436D01*
X322084Y47223D01*
X319723D01*
X324446Y46436D02*
X325233Y47223D01*
X326807D01*
X327594Y46436D01*
Y45649D01*
X326807Y44861D01*
X326020D01*
X326807D01*
X327594Y44074D01*
Y43287D01*
X326807Y42500D01*
X325233D01*
X324446Y43287D01*
X315000Y52500D02*
Y57223D01*
X317361D01*
X318149Y56436D01*
Y54861D01*
X317361Y54074D01*
X315000D01*
X316574D02*
X318149Y52500D01*
X322871Y56436D02*
X322084Y57223D01*
X320510D01*
X319723Y56436D01*
Y53287D01*
X320510Y52500D01*
X322084D01*
X322871Y53287D01*
X326807Y52500D02*
Y57223D01*
X324446Y54861D01*
X327594D01*
X315000Y62500D02*
Y67223D01*
X317361D01*
X318149Y66436D01*
Y64861D01*
X317361Y64074D01*
X315000D01*
X316574D02*
X318149Y62500D01*
X322871Y66436D02*
X322084Y67223D01*
X320510D01*
X319723Y66436D01*
Y63287D01*
X320510Y62500D01*
X322084D01*
X322871Y63287D01*
X327594Y67223D02*
X324446D01*
Y64861D01*
X326020Y65649D01*
X326807D01*
X327594Y64861D01*
Y63287D01*
X326807Y62500D01*
X325233D01*
X324446Y63287D01*
X315000Y72500D02*
Y77223D01*
X317361D01*
X318149Y76436D01*
Y74861D01*
X317361Y74074D01*
X315000D01*
X316574D02*
X318149Y72500D01*
X322871Y76436D02*
X322084Y77223D01*
X320510D01*
X319723Y76436D01*
Y73287D01*
X320510Y72500D01*
X322084D01*
X322871Y73287D01*
X327594Y77223D02*
X326020Y76436D01*
X324446Y74861D01*
Y73287D01*
X325233Y72500D01*
X326807D01*
X327594Y73287D01*
Y74074D01*
X326807Y74861D01*
X324446D01*
X315000Y82500D02*
Y87223D01*
X317361D01*
X318149Y86436D01*
Y84861D01*
X317361Y84074D01*
X315000D01*
X316574D02*
X318149Y82500D01*
X322871Y86436D02*
X322084Y87223D01*
X320510D01*
X319723Y86436D01*
Y83287D01*
X320510Y82500D01*
X322084D01*
X322871Y83287D01*
X324446Y87223D02*
X327594D01*
Y86436D01*
X324446Y83287D01*
Y82500D01*
X315000Y92500D02*
Y97223D01*
X317361D01*
X318149Y96436D01*
Y94861D01*
X317361Y94074D01*
X315000D01*
X316574D02*
X318149Y92500D01*
X319723Y97223D02*
Y92500D01*
X322084D01*
X322871Y93287D01*
Y96436D01*
X322084Y97223D01*
X319723D01*
X326807Y92500D02*
Y97223D01*
X324446Y94861D01*
X327594D01*
X315000Y102500D02*
Y107223D01*
X317361D01*
X318149Y106436D01*
Y104861D01*
X317361Y104074D01*
X315000D01*
X316574D02*
X318149Y102500D01*
X319723Y107223D02*
Y102500D01*
X322084D01*
X322871Y103287D01*
Y106436D01*
X322084Y107223D01*
X319723D01*
X327594D02*
X324446D01*
Y104861D01*
X326020Y105649D01*
X326807D01*
X327594Y104861D01*
Y103287D01*
X326807Y102500D01*
X325233D01*
X324446Y103287D01*
X315000Y112500D02*
Y117223D01*
X317361D01*
X318149Y116436D01*
Y114861D01*
X317361Y114074D01*
X315000D01*
X316574D02*
X318149Y112500D01*
X319723Y117223D02*
Y112500D01*
X322084D01*
X322871Y113287D01*
Y116436D01*
X322084Y117223D01*
X319723D01*
X327594D02*
X326020Y116436D01*
X324446Y114861D01*
Y113287D01*
X325233Y112500D01*
X326807D01*
X327594Y113287D01*
Y114074D01*
X326807Y114861D01*
X324446D01*
X315000Y122500D02*
Y127223D01*
X317361D01*
X318149Y126436D01*
Y124861D01*
X317361Y124074D01*
X315000D01*
X316574D02*
X318149Y122500D01*
X319723Y127223D02*
Y122500D01*
X322084D01*
X322871Y123287D01*
Y126436D01*
X322084Y127223D01*
X319723D01*
X324446D02*
X327594D01*
Y126436D01*
X324446Y123287D01*
Y122500D01*
X308698Y347500D02*
Y352223D01*
X311060D01*
X311847Y351436D01*
Y349861D01*
X311060Y349074D01*
X308698D01*
X310273D02*
X311847Y347500D01*
X313421Y352223D02*
Y347500D01*
X315783D01*
X316570Y348287D01*
Y351436D01*
X315783Y352223D01*
X313421D01*
X318144D02*
X321293D01*
Y351436D01*
X318144Y348287D01*
Y347500D01*
X311060Y342223D02*
X309486D01*
X308698Y341436D01*
Y338287D01*
X309486Y337500D01*
X311060D01*
X311847Y338287D01*
Y341436D01*
X311060Y342223D01*
X313421D02*
Y338287D01*
X314208Y337500D01*
X315783D01*
X316570Y338287D01*
Y342223D01*
X318144D02*
X321293D01*
X319718D01*
Y337500D01*
X325229D02*
Y342223D01*
X322867Y339861D01*
X326016D01*
X307361Y317223D02*
X305787D01*
X305000Y316436D01*
Y313287D01*
X305787Y312500D01*
X307361D01*
X308149Y313287D01*
Y316436D01*
X307361Y317223D01*
X309723D02*
Y313287D01*
X310510Y312500D01*
X312084D01*
X312872Y313287D01*
Y317223D01*
X314446D02*
X317594D01*
X316020D01*
Y312500D01*
X319169Y316436D02*
X319956Y317223D01*
X321530D01*
X322317Y316436D01*
Y315649D01*
X321530Y314861D01*
X320743D01*
X321530D01*
X322317Y314074D01*
Y313287D01*
X321530Y312500D01*
X319956D01*
X319169Y313287D01*
X305000Y306723D02*
X306574D01*
X305787D01*
Y302000D01*
X305000D01*
X306574D01*
X308936D02*
Y306723D01*
X312084Y302000D01*
Y306723D01*
X313659Y305936D02*
X314446Y306723D01*
X316020D01*
X316807Y305936D01*
Y305149D01*
X316020Y304361D01*
X315233D01*
X316020D01*
X316807Y303574D01*
Y302787D01*
X316020Y302000D01*
X314446D01*
X313659Y302787D01*
X308149Y296723D02*
X305000D01*
Y292000D01*
X308149D01*
X305000Y294361D02*
X306574D01*
X309723Y292000D02*
Y296723D01*
X312872Y292000D01*
Y296723D01*
X317594Y292000D02*
X314446D01*
X317594Y295149D01*
Y295936D01*
X316807Y296723D01*
X315233D01*
X314446Y295936D01*
X177500Y294861D02*
X180649D01*
X179074Y296436D02*
Y293287D01*
X182223Y297223D02*
Y294074D01*
X183797Y292500D01*
X185371Y294074D01*
Y297223D01*
X173000Y307223D02*
X174574D01*
X173787D01*
Y302500D01*
X173000D01*
X174574D01*
X176936D02*
Y307223D01*
X180084Y302500D01*
Y307223D01*
X184807Y302500D02*
X181659D01*
X184807Y305649D01*
Y306436D01*
X184020Y307223D01*
X182446D01*
X181659Y306436D01*
X169861Y317223D02*
X168287D01*
X167500Y316436D01*
Y313287D01*
X168287Y312500D01*
X169861D01*
X170649Y313287D01*
Y316436D01*
X169861Y317223D01*
X172223D02*
Y313287D01*
X173010Y312500D01*
X174584D01*
X175372Y313287D01*
Y317223D01*
X176946D02*
X180094D01*
X178520D01*
Y312500D01*
X184817D02*
X181669D01*
X184817Y315649D01*
Y316436D01*
X184030Y317223D01*
X182456D01*
X181669Y316436D01*
X172361Y347223D02*
X170787D01*
X170000Y346436D01*
Y343287D01*
X170787Y342500D01*
X172361D01*
X173149Y343287D01*
Y346436D01*
X172361Y347223D01*
X174723D02*
Y343287D01*
X175510Y342500D01*
X177084D01*
X177872Y343287D01*
Y347223D01*
X179446D02*
X182594D01*
X181020D01*
Y342500D01*
X184169D02*
X185743D01*
X184956D01*
Y347223D01*
X184169Y346436D01*
X175000Y357223D02*
X176574D01*
X175787D01*
Y352500D01*
X175000D01*
X176574D01*
X178936D02*
Y357223D01*
X182084Y352500D01*
Y357223D01*
X183659Y352500D02*
X185233D01*
X184446D01*
Y357223D01*
X183659Y356436D01*
X178149Y367223D02*
X175000D01*
Y362500D01*
X178149D01*
X175000Y364861D02*
X176574D01*
X179723Y362500D02*
Y367223D01*
X182871Y362500D01*
Y367223D01*
X184446Y362500D02*
X186020D01*
X185233D01*
Y367223D01*
X184446Y366436D01*
X170000Y377639D02*
X166851D01*
X168426Y376064D02*
Y379213D01*
X130000Y377639D02*
X126851D01*
D13*
X222724Y231772D02*
X222280Y232695D01*
X221281Y232923D01*
X220479Y232284D01*
Y231259D01*
X221281Y230620D01*
X222280Y230848D01*
X222724Y231772D01*
D14*
X213492Y230118D02*
X212754Y230544D01*
Y229692D01*
X213492Y230118D01*
D15*
X223500Y289500D02*
Y370500D01*
Y289500D02*
X267500D01*
Y370500D01*
X223500D02*
X267500D01*
X387835Y78332D02*
X387002Y77499D01*
Y75833D01*
X387835Y75000D01*
X391167D01*
X392000Y75833D01*
Y77499D01*
X391167Y78332D01*
X389501D01*
Y76666D01*
X392000Y79998D02*
X387002D01*
X392000Y83331D01*
X387002D01*
Y84997D02*
X392000D01*
Y87496D01*
X391167Y88329D01*
X387835D01*
X387002Y87496D01*
Y84997D01*
Y120000D02*
X392000D01*
Y122499D01*
X391167Y123332D01*
X390334D01*
X389501Y122499D01*
Y120000D01*
Y122499D01*
X388668Y123332D01*
X387835D01*
X387002Y122499D01*
Y120000D01*
X392000Y99000D02*
X388668D01*
X387002Y100666D01*
X388668Y102332D01*
X392000D01*
X389501D01*
Y99000D01*
X387002Y55000D02*
X390334D01*
X392000Y56666D01*
X390334Y58332D01*
X387002D01*
X387835Y63331D02*
X387002Y62498D01*
Y60831D01*
X387835Y59998D01*
X391167D01*
X392000Y60831D01*
Y62498D01*
X391167Y63331D01*
X387835Y68329D02*
X387002Y67496D01*
Y65830D01*
X387835Y64997D01*
X391167D01*
X392000Y65830D01*
Y67496D01*
X391167Y68329D01*
X392000Y37000D02*
X387002D01*
X388668Y38666D01*
X387002Y40332D01*
X392000D01*
X389501Y41998D02*
Y45331D01*
X392000Y18000D02*
X387002D01*
X388668Y19666D01*
X387002Y21332D01*
X392000D01*
X389501Y22998D02*
Y26331D01*
X387835Y24665D02*
X391167D01*
X354000Y27000D02*
X349002D01*
X350668Y28666D01*
X349002Y30332D01*
X354000D01*
X349002Y34498D02*
Y32831D01*
X349835Y31998D01*
X353167D01*
X354000Y32831D01*
Y34498D01*
X353167Y35331D01*
X349835D01*
X349002Y34498D01*
Y36997D02*
Y40329D01*
Y38663D01*
X354000D01*
X349002Y44494D02*
Y42828D01*
X349835Y41995D01*
X353167D01*
X354000Y42828D01*
Y44494D01*
X353167Y45327D01*
X349835D01*
X349002Y44494D01*
X354000Y46993D02*
X349002D01*
Y49493D01*
X349835Y50326D01*
X351501D01*
X352334Y49493D01*
Y46993D01*
Y48660D02*
X354000Y50326D01*
X349002Y56990D02*
X354000D01*
X352334Y58656D01*
X354000Y60322D01*
X349002D01*
Y61989D02*
Y63655D01*
Y62822D01*
X354000D01*
Y61989D01*
Y63655D01*
X349002Y66154D02*
Y69486D01*
Y67820D01*
X354000D01*
X349002Y71152D02*
X354000D01*
X351501D01*
Y74485D01*
X349002D01*
X354000D01*
X349002Y84481D02*
Y81149D01*
X354000D01*
Y84481D01*
X351501Y81149D02*
Y82815D01*
X354000Y86147D02*
X349002D01*
X354000Y89480D01*
X349002D01*
X349835Y94478D02*
X349002Y93645D01*
Y91979D01*
X349835Y91146D01*
X353167D01*
X354000Y91979D01*
Y93645D01*
X353167Y94478D01*
X349002Y98643D02*
Y96977D01*
X349835Y96144D01*
X353167D01*
X354000Y96977D01*
Y98643D01*
X353167Y99476D01*
X349835D01*
X349002Y98643D01*
Y101143D02*
X354000D01*
Y103642D01*
X353167Y104475D01*
X349835D01*
X349002Y103642D01*
Y101143D01*
Y109473D02*
Y106141D01*
X354000D01*
Y109473D01*
X351501Y106141D02*
Y107807D01*
X354000Y111139D02*
X349002D01*
Y113639D01*
X349835Y114472D01*
X351501D01*
X352334Y113639D01*
Y111139D01*
Y112805D02*
X354000Y114472D01*
X390998Y339668D02*
Y343000D01*
X388499D01*
X389332Y341334D01*
Y340501D01*
X388499Y339668D01*
X386833D01*
X386000Y340501D01*
Y342167D01*
X386833Y343000D01*
X390998Y338002D02*
X387666D01*
X386000Y336335D01*
X387666Y334669D01*
X390998D01*
X387000Y387500D02*
Y385834D01*
Y386667D01*
X391998D01*
X391165Y387500D01*
X387000Y380002D02*
Y383335D01*
X390332Y380002D01*
X391165D01*
X391998Y380836D01*
Y382502D01*
X391165Y383335D01*
X391998Y378336D02*
X388666D01*
X387000Y376670D01*
X388666Y375004D01*
X391998D01*
X353000Y246000D02*
X355999D01*
X354999Y245000D01*
X355999Y244001D01*
X353000D01*
X355499Y241002D02*
X355999Y241501D01*
Y242501D01*
X355499Y243001D01*
X353500D01*
X353000Y242501D01*
Y241501D01*
X353500Y241002D01*
X355999Y240002D02*
X353000D01*
Y238003D01*
Y237003D02*
X355999D01*
Y235503D01*
X355499Y235004D01*
X354500D01*
X354000Y235503D01*
Y237003D01*
Y236003D02*
X353000Y235004D01*
X372000Y229000D02*
X376998D01*
Y226501D01*
X376165Y225668D01*
X374499D01*
X373666Y226501D01*
Y229000D01*
X376998Y224002D02*
Y222336D01*
Y223169D01*
X372000D01*
Y224002D01*
Y222336D01*
X376165Y216504D02*
X376998Y217337D01*
Y219003D01*
X376165Y219836D01*
X372833D01*
X372000Y219003D01*
Y217337D01*
X372833Y216504D01*
X376998Y214838D02*
X372000D01*
X373666D01*
X376998Y211506D01*
X374499Y214005D01*
X372000Y211506D01*
X376998Y209840D02*
Y208173D01*
Y209007D01*
X372000D01*
Y209840D01*
Y208173D01*
X376998Y205674D02*
Y202342D01*
Y204008D01*
X372000D01*
D16*
X188000Y360000D02*
Y370000D01*
Y360000D02*
X218000D01*
Y370000D01*
X188000D02*
X218000D01*
X332000Y257000D02*
X342000D01*
Y307000D01*
X332000D02*
X342000D01*
X332000Y257000D02*
Y307000D01*
X-34890Y389496D02*
X106843D01*
X-34890Y74535D02*
Y389496D01*
Y74535D02*
X106843D01*
Y389496D01*
X180000Y350000D02*
Y390000D01*
X120000D02*
X180000D01*
X120000Y350000D02*
Y390000D01*
Y350000D02*
X180000D01*
X160000Y380000D02*
Y390000D01*
X140000Y380000D02*
X160000D01*
X140000D02*
Y390000D01*
X218000Y350000D02*
Y360000D01*
X188000D02*
X218000D01*
X188000Y350000D02*
Y360000D01*
Y350000D02*
X218000D01*
Y340000D02*
Y350000D01*
X188000D02*
X218000D01*
X188000Y340000D02*
Y350000D01*
Y340000D02*
X218000D01*
Y310000D02*
Y320000D01*
X188000D02*
X218000D01*
X188000Y310000D02*
Y320000D01*
Y310000D02*
X218000D01*
Y300000D02*
Y310000D01*
X188000D02*
X218000D01*
X188000Y300000D02*
Y310000D01*
Y300000D02*
X218000D01*
Y290000D02*
Y300000D01*
X188000D02*
X218000D01*
X188000Y290000D02*
Y300000D01*
Y290000D02*
X218000D01*
X306000Y344000D02*
Y354000D01*
X276000D02*
X306000D01*
X276000Y344000D02*
Y354000D01*
Y344000D02*
X306000D01*
Y334000D02*
Y344000D01*
X276000D02*
X306000D01*
X276000Y334000D02*
Y344000D01*
Y334000D02*
X306000D01*
X303000Y310000D02*
Y320000D01*
X273000D02*
X303000D01*
X273000Y310000D02*
Y320000D01*
Y310000D02*
X303000D01*
Y300000D02*
Y310000D01*
X273000D02*
X303000D01*
X273000Y300000D02*
Y310000D01*
Y300000D02*
X303000D01*
Y290000D02*
Y300000D01*
X273000D02*
X303000D01*
X273000Y290000D02*
Y300000D01*
Y290000D02*
X303000D01*
X342000Y375000D02*
Y385000D01*
X292000D02*
X342000D01*
X292000Y375000D02*
Y385000D01*
Y375000D02*
X342000D01*
X274000D02*
Y385000D01*
X224000D02*
X274000D01*
X224000Y375000D02*
Y385000D01*
Y375000D02*
X274000D01*
X354252Y130000D02*
X385748D01*
X354252Y30000D02*
Y130000D01*
X385748Y10315D02*
Y130000D01*
X354252Y10315D02*
X385748D01*
X354252D02*
Y30000D01*
X350000Y15000D02*
Y25000D01*
X320000D02*
X350000D01*
X320000Y15000D02*
Y25000D01*
Y15000D02*
X350000D01*
Y35000D02*
Y45000D01*
X320000D02*
X350000D01*
X320000Y35000D02*
Y45000D01*
Y35000D02*
X350000D01*
X382748Y328000D02*
Y347685D01*
X351252D02*
X382748D01*
X351252Y308315D02*
Y347685D01*
Y308315D02*
X382748D01*
Y328000D01*
Y369000D02*
Y388685D01*
X351252D02*
X382748D01*
X351252Y349315D02*
Y388685D01*
Y349315D02*
X382748D01*
Y369000D01*
X357000Y181000D02*
Y210500D01*
Y231500D02*
Y251000D01*
X377000D01*
X357000Y210500D02*
Y231500D01*
X357875Y181000D02*
X370625D01*
X377000D02*
Y251000D01*
X357000Y181000D02*
X357875D01*
X370625D02*
X377000D01*
X173000Y231000D02*
X203000D01*
Y221000D02*
Y231000D01*
X173000Y221000D02*
X203000D01*
X173000D02*
Y231000D01*
X283698Y210000D02*
X313698D01*
X283698D02*
Y220000D01*
X313698D01*
Y210000D02*
Y220000D01*
X283698D02*
X313698D01*
X283698D02*
Y230000D01*
X313698D01*
Y220000D02*
Y230000D01*
X173000Y70000D02*
X203000D01*
X173000D02*
Y80000D01*
X203000D01*
Y70000D02*
Y80000D01*
X173000Y200000D02*
X203000D01*
X173000D02*
Y210000D01*
X203000D01*
Y200000D02*
Y210000D01*
X173000Y40000D02*
X203000D01*
X173000D02*
Y50000D01*
X203000D01*
Y40000D02*
Y50000D01*
X173000Y60000D02*
X203000D01*
X173000D02*
Y70000D01*
X203000D01*
Y60000D02*
Y70000D01*
X173000Y190000D02*
X203000D01*
X173000D02*
Y200000D01*
X203000D01*
Y190000D02*
Y200000D01*
X173000Y30000D02*
X203000D01*
X173000D02*
Y40000D01*
X203000D01*
Y30000D02*
Y40000D01*
X173000Y50000D02*
X203000D01*
X173000D02*
Y60000D01*
X203000D01*
Y50000D02*
Y60000D01*
X173000Y180000D02*
X203000D01*
X173000D02*
Y190000D01*
X203000D01*
Y180000D02*
Y190000D01*
X283698Y30000D02*
X313698D01*
X283698D02*
Y40000D01*
X313698D01*
Y30000D02*
Y40000D01*
X283698Y50000D02*
X313698D01*
X283698D02*
Y60000D01*
X313698D01*
Y50000D02*
Y60000D01*
X173000Y170000D02*
X203000D01*
X173000D02*
Y180000D01*
X203000D01*
Y170000D02*
Y180000D01*
X283698Y40000D02*
X313698D01*
X283698D02*
Y50000D01*
X313698D01*
Y40000D02*
Y50000D01*
X283698Y60000D02*
X313698D01*
X283698D02*
Y70000D01*
X313698D01*
Y60000D02*
Y70000D01*
X173000Y160000D02*
X203000D01*
X173000D02*
Y170000D01*
X203000D01*
Y160000D02*
Y170000D01*
X283698Y90000D02*
X313698D01*
X283698D02*
Y100000D01*
X313698D01*
Y90000D02*
Y100000D01*
X283698Y70000D02*
X313698D01*
X283698D02*
Y80000D01*
X313698D01*
Y70000D02*
Y80000D01*
X283698Y150000D02*
X313698D01*
X283698D02*
Y160000D01*
X313698D01*
Y150000D02*
Y160000D01*
X283698Y100000D02*
X313698D01*
X283698D02*
Y110000D01*
X313698D01*
Y100000D02*
Y110000D01*
X283698Y80000D02*
X313698D01*
X283698D02*
Y90000D01*
X313698D01*
Y80000D02*
Y90000D01*
X283698Y160000D02*
X313698D01*
X283698D02*
Y170000D01*
X313698D01*
Y160000D02*
Y170000D01*
X283698Y110000D02*
X313698D01*
X283698D02*
Y120000D01*
X313698D01*
Y110000D02*
Y120000D01*
X283698Y170000D02*
X313698D01*
X283698D02*
Y180000D01*
X313698D01*
Y170000D02*
Y180000D01*
X283698Y120000D02*
X313698D01*
X283698D02*
Y130000D01*
X313698D01*
Y120000D02*
Y130000D01*
X283698Y180000D02*
X313698D01*
X283698D02*
Y190000D01*
X313698D01*
Y180000D02*
Y190000D01*
X173000Y150000D02*
X203000D01*
X173000D02*
Y160000D01*
X203000D01*
Y150000D02*
Y160000D01*
X283698Y190000D02*
X313698D01*
X283698D02*
Y200000D01*
X313698D01*
Y190000D02*
Y200000D01*
X173000Y140000D02*
X203000D01*
X173000D02*
Y150000D01*
X203000D01*
Y140000D02*
Y150000D01*
X283698Y200000D02*
X313698D01*
X283698D02*
Y210000D01*
X313698D01*
Y200000D02*
Y210000D01*
X173000Y130000D02*
X203000D01*
X173000D02*
Y140000D01*
X203000D01*
Y130000D02*
Y140000D01*
X173000Y80000D02*
X203000D01*
X173000D02*
Y90000D01*
X203000D01*
Y80000D02*
Y90000D01*
X173000Y210000D02*
X203000D01*
X173000D02*
Y220000D01*
X203000D01*
Y210000D02*
Y220000D01*
D17*
X42544Y372965D02*
X44052Y374474D01*
Y377491D01*
X42544Y379000D01*
X36509D01*
X35000Y377491D01*
Y374474D01*
X36509Y372965D01*
X44052Y365422D02*
Y368439D01*
X42544Y369948D01*
X36509D01*
X35000Y368439D01*
Y365422D01*
X36509Y363913D01*
X42544D01*
X44052Y365422D01*
X35000Y360896D02*
X44052D01*
X35000Y354861D01*
X44052D01*
Y351843D02*
Y345809D01*
Y348826D01*
X35000D01*
Y342791D02*
X44052D01*
Y338265D01*
X42544Y336756D01*
X39526D01*
X38017Y338265D01*
Y342791D01*
Y339774D02*
X35000Y336756D01*
X44052Y329213D02*
Y332230D01*
X42544Y333739D01*
X36509D01*
X35000Y332230D01*
Y329213D01*
X36509Y327704D01*
X42544D01*
X44052Y329213D01*
Y324687D02*
X35000D01*
Y318652D01*
X44052Y306582D02*
X35000D01*
Y302056D01*
X36509Y300548D01*
X42544D01*
X44052Y302056D01*
Y306582D01*
X42544Y291495D02*
X44052Y293004D01*
Y296022D01*
X42544Y297530D01*
X36509D01*
X35000Y296022D01*
Y293004D01*
X36509Y291495D01*
X35000Y279426D02*
X44052D01*
Y274900D01*
X42544Y273391D01*
X39526D01*
X38017Y274900D01*
Y279426D01*
X44052Y270374D02*
Y267356D01*
Y268865D01*
X35000D01*
Y270374D01*
Y267356D01*
X44052Y262830D02*
X35000D01*
Y258304D01*
X36509Y256795D01*
X42544D01*
X44052Y258304D01*
Y262830D01*
X24307Y379000D02*
X12500D01*
Y373096D01*
X14468Y371129D01*
X16436D01*
X18404Y373096D01*
Y379000D01*
Y373096D01*
X20371Y371129D01*
X22339D01*
X24307Y373096D01*
Y379000D01*
Y367193D02*
X12500D01*
Y359321D01*
Y355386D02*
X20371D01*
X24307Y351450D01*
X20371Y347514D01*
X12500D01*
X18404D01*
Y355386D01*
X24307Y343578D02*
Y335707D01*
X22339D01*
X14468Y343578D01*
X12500D01*
Y335707D01*
X24307Y331771D02*
Y327835D01*
Y329803D01*
X12500D01*
Y331771D01*
Y327835D01*
X22339Y314060D02*
X24307Y316028D01*
Y319964D01*
X22339Y321932D01*
X14468D01*
X12500Y319964D01*
Y316028D01*
X14468Y314060D01*
X12500Y290446D02*
Y298318D01*
X20371Y290446D01*
X22339D01*
X24307Y292414D01*
Y296350D01*
X22339Y298318D01*
Y286510D02*
X24307Y284542D01*
Y280607D01*
X22339Y278639D01*
X14468D01*
X12500Y280607D01*
Y284542D01*
X14468Y286510D01*
X22339D01*
X12500Y266832D02*
Y274703D01*
X20371Y266832D01*
X22339D01*
X24307Y268799D01*
Y272735D01*
X22339Y274703D01*
Y262896D02*
X24307Y260928D01*
Y256992D01*
X22339Y255024D01*
X14468D01*
X12500Y256992D01*
Y260928D01*
X14468Y262896D01*
X22339D01*
X198189Y378936D02*
X203437D01*
X200813Y381560D02*
Y376312D01*
X211308Y382872D02*
X206061D01*
Y378936D01*
X208684Y380248D01*
X209996D01*
X211308Y378936D01*
Y376312D01*
X209996Y375000D01*
X207372D01*
X206061Y376312D01*
X213932Y382872D02*
Y377624D01*
X216556Y375000D01*
X219180Y377624D01*
Y382872D01*
X305000Y368936D02*
X310248D01*
X307624Y371560D02*
Y366312D01*
X312872Y365000D02*
X315495D01*
X314183D01*
Y372871D01*
X312872Y371560D01*
X324679Y365000D02*
X319431D01*
X324679Y370248D01*
Y371560D01*
X323367Y372871D01*
X320743D01*
X319431Y371560D01*
X327303Y372871D02*
Y367624D01*
X329926Y365000D01*
X332550Y367624D01*
Y372871D01*
X350248Y284060D02*
X348936Y285371D01*
X346312D01*
X345000Y284060D01*
Y278812D01*
X346312Y277500D01*
X348936D01*
X350248Y278812D01*
Y281436D01*
X347624D01*
X352871Y277500D02*
Y285371D01*
X358119Y277500D01*
Y285371D01*
X360743D02*
Y277500D01*
X364679D01*
X365991Y278812D01*
Y284060D01*
X364679Y285371D01*
X360743D01*
D18*
X249334Y341500D02*
X249001Y341833D01*
Y342500D01*
X249334Y342833D01*
X249667D01*
X250000Y342500D01*
Y342166D01*
Y342500D01*
X250334Y342833D01*
X250667D01*
X251000Y342500D01*
Y341833D01*
X250667Y341500D01*
X249001Y344832D02*
Y343499D01*
X250000D01*
X249667Y344166D01*
Y344499D01*
X250000Y344832D01*
X250667D01*
X251000Y344499D01*
Y343833D01*
X250667Y343499D01*
X251000Y345499D02*
X249667D01*
Y345832D01*
X250000Y346165D01*
X251000D01*
X250000D01*
X249667Y346498D01*
X250000Y346832D01*
X251000D01*
Y347498D02*
Y348165D01*
Y347831D01*
X249667D01*
Y347498D01*
X251000Y349164D02*
Y349831D01*
Y349497D01*
X249001D01*
Y349164D01*
X251000Y350830D02*
Y351830D01*
X250667Y352163D01*
X250334Y351830D01*
Y351164D01*
X250000Y350830D01*
X249667Y351164D01*
Y352163D01*
X364000Y66000D02*
X362001D01*
X363000Y65000D01*
Y66333D01*
X362001Y68332D02*
Y66999D01*
X363000D01*
X362667Y67666D01*
Y67999D01*
X363000Y68332D01*
X363667D01*
X364000Y67999D01*
Y67333D01*
X363667Y66999D01*
X364000Y68999D02*
X362667D01*
Y69332D01*
X363000Y69665D01*
X364000D01*
X363000D01*
X362667Y69998D01*
X363000Y70332D01*
X364000D01*
Y70998D02*
Y71665D01*
Y71331D01*
X362667D01*
Y70998D01*
X364000Y72664D02*
Y73331D01*
Y72997D01*
X362001D01*
Y72664D01*
X364000Y74330D02*
Y75330D01*
X363667Y75663D01*
X363334Y75330D01*
Y74664D01*
X363000Y74330D01*
X362667Y74664D01*
Y75663D01*
X360000Y332000D02*
X361999D01*
X361000Y333000D01*
Y331667D01*
X361999Y329668D02*
Y331001D01*
X361000D01*
X361333Y330334D01*
Y330001D01*
X361000Y329668D01*
X360333D01*
X360000Y330001D01*
Y330667D01*
X360333Y331001D01*
X360000Y329001D02*
X361333D01*
Y328668D01*
X361000Y328335D01*
X360000D01*
X361000D01*
X361333Y328002D01*
X361000Y327668D01*
X360000D01*
Y327002D02*
Y326336D01*
Y326669D01*
X361333D01*
Y327002D01*
X360000Y325336D02*
Y324669D01*
Y325003D01*
X361999D01*
Y325336D01*
X360000Y323670D02*
Y322670D01*
X360333Y322337D01*
X360666Y322670D01*
Y323337D01*
X361000Y323670D01*
X361333Y323337D01*
Y322337D01*
X360000Y373000D02*
X361999D01*
X361000Y374000D01*
Y372667D01*
X361999Y370668D02*
Y372001D01*
X361000D01*
X361333Y371334D01*
Y371001D01*
X361000Y370668D01*
X360333D01*
X360000Y371001D01*
Y371667D01*
X360333Y372001D01*
X360000Y370001D02*
X361333D01*
Y369668D01*
X361000Y369335D01*
X360000D01*
X361000D01*
X361333Y369002D01*
X361000Y368668D01*
X360000D01*
Y368002D02*
Y367336D01*
Y367669D01*
X361333D01*
Y368002D01*
X360000Y366336D02*
Y365669D01*
Y366003D01*
X361999D01*
Y366336D01*
X360000Y364670D02*
Y363670D01*
X360333Y363337D01*
X360666Y363670D01*
Y364336D01*
X361000Y364670D01*
X361333Y364336D01*
Y363337D01*
D19*
X344952Y319500D02*
Y315564D01*
X345452Y341000D02*
Y337064D01*
X347420Y339032D02*
X343484D01*
X344952Y360500D02*
Y356564D01*
X345452Y382000D02*
Y378064D01*
X347420Y380032D02*
X343484D01*
D20*
X12149Y66148D02*
X11149Y67148D01*
X9150D01*
X8150Y66148D01*
Y65149D01*
X9150Y64149D01*
X11149D01*
X12149Y63149D01*
Y62150D01*
X11149Y61150D01*
X9150D01*
X8150Y62150D01*
X14148Y67148D02*
Y61150D01*
X16147Y63149D01*
X18147Y61150D01*
Y67148D01*
X20146Y66148D02*
X21146Y67148D01*
X23145D01*
X24145Y66148D01*
Y65149D01*
X23145Y64149D01*
X22145D01*
X23145D01*
X24145Y63149D01*
Y62150D01*
X23145Y61150D01*
X21146D01*
X20146Y62150D01*
X52149Y66148D02*
X51149Y67148D01*
X49150D01*
X48150Y66148D01*
Y65149D01*
X49150Y64149D01*
X51149D01*
X52149Y63149D01*
Y62150D01*
X51149Y61150D01*
X49150D01*
X48150Y62150D01*
X54148Y67148D02*
Y61150D01*
X56147Y63149D01*
X58147Y61150D01*
Y67148D01*
X64145Y61150D02*
X60146D01*
X64145Y65149D01*
Y66148D01*
X63145Y67148D01*
X61146D01*
X60146Y66148D01*
X17650Y126150D02*
Y132148D01*
X20649D01*
X21649Y131148D01*
Y129149D01*
X20649Y128149D01*
X17650D01*
X19649D02*
X21649Y126150D01*
X27647Y132148D02*
X23648D01*
Y129149D01*
X25647Y130149D01*
X26647D01*
X27647Y129149D01*
Y127150D01*
X26647Y126150D01*
X24648D01*
X23648Y127150D01*
X37600Y126200D02*
Y132198D01*
X40599D01*
X41599Y131198D01*
Y129199D01*
X40599Y128199D01*
X37600D01*
X39599D02*
X41599Y126200D01*
X46597D02*
Y132198D01*
X43598Y129199D01*
X47597D01*
X120787Y393200D02*
Y399198D01*
X123786D01*
X124785Y398198D01*
Y396199D01*
X123786Y395199D01*
X120787D01*
X122786D02*
X124785Y393200D01*
X126785Y398198D02*
X127784Y399198D01*
X129784D01*
X130783Y398198D01*
Y397199D01*
X129784Y396199D01*
X128784D01*
X129784D01*
X130783Y395199D01*
Y394200D01*
X129784Y393200D01*
X127784D01*
X126785Y394200D01*
X-34100Y400698D02*
Y394700D01*
X-31101D01*
X-30101Y395700D01*
Y399698D01*
X-31101Y400698D01*
X-34100D01*
X-28102Y394700D02*
X-26103D01*
X-27102D01*
Y398699D01*
X-28102D01*
X-23104Y394700D02*
X-20105D01*
X-19105Y395700D01*
X-20105Y396699D01*
X-22104D01*
X-23104Y397699D01*
X-22104Y398699D01*
X-19105D01*
X-17106Y392701D02*
Y398699D01*
X-14107D01*
X-13107Y397699D01*
Y395700D01*
X-14107Y394700D01*
X-17106D01*
X-11107D02*
X-9108D01*
X-10108D01*
Y400698D01*
X-11107D01*
X-5109Y398699D02*
X-3110D01*
X-2110Y397699D01*
Y394700D01*
X-5109D01*
X-6109Y395700D01*
X-5109Y396699D01*
X-2110D01*
X-111Y398699D02*
Y395700D01*
X889Y394700D01*
X3888D01*
Y393700D01*
X2888Y392701D01*
X1888D01*
X3888Y394700D02*
Y398699D01*
X5887Y394700D02*
X7886D01*
X6887D01*
Y400698D01*
X5887Y399698D01*
X240000Y364998D02*
Y360000D01*
X241000Y359000D01*
X242999D01*
X243999Y360000D01*
Y364998D01*
X249997Y359000D02*
X245998D01*
X249997Y362999D01*
Y363998D01*
X248997Y364998D01*
X246998D01*
X245998Y363998D01*
X342500Y72500D02*
Y66502D01*
X339501D01*
X338501Y67502D01*
Y69501D01*
X339501Y70501D01*
X342500D01*
X340501D02*
X338501Y72500D01*
X332503D02*
X336502D01*
X332503Y68501D01*
Y67502D01*
X333503Y66502D01*
X335502D01*
X336502Y67502D01*
X170000Y105998D02*
Y104998D01*
X171999Y102999D01*
X173999Y104998D01*
Y105998D01*
X171999Y102999D02*
Y100000D01*
X175998D02*
X177997D01*
X176998D01*
Y105998D01*
X175998Y104998D01*
X353300Y260198D02*
Y254200D01*
Y257199D01*
X357299D01*
Y260198D01*
Y254200D01*
X359298D02*
X361297D01*
X360298D01*
Y260198D01*
X359298Y259198D01*
X136901Y181902D02*
X137901Y180902D01*
X139900D01*
X140900Y181902D01*
Y182901D01*
X139900Y183901D01*
X137901D01*
X136901Y184901D01*
Y185900D01*
X137901Y186900D01*
X139900D01*
X140900Y185900D01*
X134902Y180902D02*
Y186900D01*
X132903Y184901D01*
X130903Y186900D01*
Y180902D01*
X128904Y186900D02*
X126904D01*
X127904D01*
Y180902D01*
X128904Y181902D01*
X180189Y238709D02*
Y244707D01*
X183188D01*
X184188Y243707D01*
Y241708D01*
X183188Y240708D01*
X180189D01*
X182188D02*
X184188Y238709D01*
X186187D02*
X188186D01*
X187187D01*
Y244707D01*
X186187Y243707D01*
X136999Y94998D02*
X135999Y95998D01*
X134000D01*
X133000Y94998D01*
Y91000D01*
X134000Y90000D01*
X135999D01*
X136999Y91000D01*
X142997Y90000D02*
X138998D01*
X142997Y93999D01*
Y94998D01*
X141997Y95998D01*
X139998D01*
X138998Y94998D01*
X136999Y114998D02*
X135999Y115998D01*
X134000D01*
X133000Y114998D01*
Y111000D01*
X134000Y110000D01*
X135999D01*
X136999Y111000D01*
X138998Y110000D02*
X140997D01*
X139998D01*
Y115998D01*
X138998Y114998D01*
M02*
