G04*
G04 #@! TF.GenerationSoftware,Altium Limited,Altium Designer,18.1.7 (191)*
G04*
G04 Layer_Physical_Order=1*
G04 Layer_Color=255*
%FSLAX25Y25*%
%MOIN*%
G70*
G01*
G75*
%ADD33R,0.05512X0.08268*%
%ADD34R,0.08268X0.05512*%
%ADD35C,0.05512*%
%ADD36R,0.06000X0.06000*%
%ADD37C,0.06000*%
%ADD38C,0.04921*%
%ADD39C,0.05512*%
%ADD40C,0.07000*%
%ADD41C,0.08000*%
%ADD42C,0.05118*%
%ADD43C,0.04724*%
%ADD44C,0.05906*%
%ADD45R,0.05906X0.05906*%
D33*
X68858Y52913D02*
D03*
Y17087D02*
D03*
X51142D02*
D03*
Y52913D02*
D03*
X28858D02*
D03*
Y17087D02*
D03*
X11142D02*
D03*
Y52913D02*
D03*
D34*
X117087Y192858D02*
D03*
X152913D02*
D03*
Y175142D02*
D03*
X117087D02*
D03*
D35*
X97000Y218000D02*
X110000D01*
Y281000D01*
X109000Y282000D02*
X110000Y281000D01*
X107500Y35000D02*
X178000D01*
X77500Y5000D02*
X107500Y35000D01*
X41339Y5000D02*
X77500D01*
X29252Y17087D02*
X41339Y5000D01*
X28858Y17087D02*
X29252D01*
X97000Y45000D02*
X178000D01*
X89087Y52913D02*
X97000Y45000D01*
X68858Y52913D02*
X89087D01*
X28858Y17087D02*
Y52913D01*
X68858Y17087D02*
Y52913D01*
X51142Y17087D02*
Y52913D01*
X11142Y17087D02*
Y52913D01*
Y135000D02*
Y319142D01*
Y52913D02*
Y135000D01*
X18661Y127480D01*
X23098D01*
X28858Y121721D01*
Y86721D02*
Y121721D01*
Y86721D02*
X36339Y79240D01*
Y67716D02*
Y79240D01*
Y67716D02*
X51142Y52913D01*
X11142Y319142D02*
X43847Y351847D01*
X82000D01*
X68858Y52913D02*
Y70000D01*
X50000Y88858D02*
X68858Y70000D01*
X28858Y52913D02*
Y76142D01*
X20000Y85000D02*
X28858Y76142D01*
X20000Y85000D02*
Y90000D01*
X41142Y88858D02*
X50000D01*
X40000Y90000D02*
X41142Y88858D01*
X97000Y186000D02*
Y208000D01*
X170000Y370000D02*
X180000Y380000D01*
X229000D01*
X118000Y338000D02*
X150000Y370000D01*
X97000Y338000D02*
X118000D01*
Y358000D02*
X130000Y370000D01*
X97000Y358000D02*
X118000D01*
X97000Y318000D02*
X147000D01*
X154000Y325000D01*
X213000Y365000D02*
X228000D01*
X203000D02*
X213000D01*
X193000D02*
X203000D01*
X350500Y277500D02*
Y338000D01*
Y277500D02*
X378631Y249369D01*
Y241000D02*
Y249369D01*
X370407Y232776D02*
X378631Y241000D01*
X368776Y232776D02*
X370407D01*
X367000Y231000D02*
X368776Y232776D01*
X366000Y380000D02*
X367000Y379000D01*
X337000Y380000D02*
X366000D01*
X350500Y338000D02*
X367000D01*
X324500Y364000D02*
X350500Y338000D01*
X278000Y241000D02*
X367000D01*
X350000Y211000D02*
X367000D01*
X336000Y225000D02*
X350000Y211000D01*
X308698Y225000D02*
X336000D01*
X343579Y201000D02*
X367000D01*
X329579Y215000D02*
X343579Y201000D01*
X85000Y209000D02*
Y278000D01*
Y209000D02*
X86000Y208000D01*
X97000D01*
X330000Y85000D02*
Y105000D01*
X97000Y186000D02*
X107858Y175142D01*
X117087D01*
X152913D01*
X117087Y192858D02*
X152913D01*
Y201544D01*
X177369Y226000D01*
X178000D01*
X273000Y135000D02*
X349000D01*
X308698Y215000D02*
X329579D01*
X213000Y225000D02*
X231000D01*
X221000Y252000D02*
X243000Y230000D01*
X182480Y252000D02*
X221000D01*
X168189Y237709D02*
X182480Y252000D01*
X250480Y170520D02*
X255000Y166000D01*
X250480Y170520D02*
Y233098D01*
X223579Y260000D02*
X250480Y233098D01*
X161000Y260000D02*
X223579D01*
X147000Y246000D02*
X161000Y260000D01*
X85000Y278000D02*
X97000D01*
X82000Y318000D02*
Y351847D01*
Y303000D02*
Y318000D01*
X97000D01*
X96256Y357256D02*
X97000Y358000D01*
X87409Y357256D02*
X96256D01*
X82000Y351847D02*
X87409Y357256D01*
X82000Y303000D02*
X87000Y298000D01*
X97000D01*
Y288000D02*
Y298000D01*
Y278000D02*
Y288000D01*
Y268000D02*
Y278000D01*
X154000Y325000D02*
X228000D01*
X308698Y55000D02*
X330000D01*
X308698Y75000D02*
X338000D01*
X348520Y85520D01*
Y98520D01*
X370000Y120000D01*
X308698Y65000D02*
X346000D01*
X356000Y75000D01*
Y86000D01*
X370000Y100000D01*
X228000Y325000D02*
X262646D01*
X278000Y371000D02*
X285000Y364000D01*
X269000Y380000D02*
X278000Y371000D01*
X272000Y365000D02*
X278000Y371000D01*
X262646Y365000D02*
X272000D01*
X259000Y380000D02*
X269000D01*
X249000D02*
X259000D01*
X239000D02*
X249000D01*
X229000D02*
X239000D01*
X285000Y364000D02*
X324500D01*
X327000Y380000D02*
X337000D01*
X317000D02*
X327000D01*
X307000D02*
X317000D01*
X297000D02*
X307000D01*
X262646Y355000D02*
X271000D01*
X277000Y349000D01*
X281000D01*
X291000D02*
X301000D01*
X281000D02*
X291000D01*
X262646Y345000D02*
X270000D01*
X276000Y339000D01*
X281000D01*
X291000D02*
X301000D01*
X281000D02*
X291000D01*
X288000Y315000D02*
X298000D01*
X278000D02*
X288000D01*
X262646D02*
X278000D01*
X288000Y305000D02*
X298000D01*
X278000D02*
X288000D01*
X262646D02*
X278000D01*
X288000Y295000D02*
X298000D01*
X278000D02*
X288000D01*
X262646D02*
X278000D01*
X213000D02*
X228000D01*
X203000D02*
X213000D01*
X193000D02*
X203000D01*
X213000Y305000D02*
X228000D01*
X203000D02*
X213000D01*
X193000D02*
X203000D01*
X213000Y315000D02*
X228000D01*
X203000D02*
X213000D01*
X193000D02*
X203000D01*
X213000Y345000D02*
X228000D01*
X203000D02*
X213000D01*
X193000D02*
X203000D01*
X213000Y355000D02*
X228000D01*
X203000D02*
X213000D01*
X193000D02*
X203000D01*
X262646Y325000D02*
Y335000D01*
X228000Y325000D02*
Y335000D01*
X345000Y20000D02*
X370000D01*
X335000D02*
X345000D01*
X325000D02*
X335000D01*
X345000Y40000D02*
X370000D01*
X335000D02*
X345000D01*
X325000D02*
X335000D01*
X298698Y225000D02*
X308698D01*
X288698D02*
X298698D01*
X273000D02*
X288698D01*
X298698Y215000D02*
X308698D01*
X288698D02*
X298698D01*
X273000D02*
X288698D01*
X298698Y205000D02*
X308698D01*
X288698D02*
X298698D01*
X273000D02*
X288698D01*
X298698Y195000D02*
X308698D01*
X288698D02*
X298698D01*
X275323D02*
X288698D01*
X298698Y185000D02*
X308698D01*
X288698D02*
X298698D01*
X273000D02*
X288698D01*
X298698Y175000D02*
X308698D01*
X288698D02*
X298698D01*
X273000D02*
X288698D01*
X298698Y165000D02*
X308698D01*
X288698D02*
X298698D01*
X273000D02*
X288698D01*
X298698Y155000D02*
X308698D01*
X288698D02*
X298698D01*
X273000D02*
X288698D01*
X298698Y35000D02*
X308698D01*
X288698D02*
X298698D01*
X273000D02*
X288698D01*
X298698Y45000D02*
X308698D01*
X288698D02*
X298698D01*
X273000D02*
X288698D01*
X298698Y55000D02*
X308698D01*
X288698D02*
X298698D01*
X273000D02*
X288698D01*
X298698Y65000D02*
X308698D01*
X288698D02*
X298698D01*
X273000D02*
X288698D01*
X298698Y75000D02*
X308698D01*
X288698D02*
X298698D01*
X273000D02*
X288698D01*
X298698Y85000D02*
X308698D01*
X288698D02*
X298698D01*
X273000D02*
X288698D01*
X298698Y95000D02*
X308698D01*
X288698D02*
X298698D01*
X273000D02*
X288698D01*
X298698Y105000D02*
X308698D01*
X288698D02*
X298698D01*
X273000D02*
X288698D01*
X298698Y115000D02*
X308698D01*
X288698D02*
X298698D01*
X273000D02*
X288698D01*
X298698Y125000D02*
X308698D01*
X288698D02*
X298698D01*
X273000D02*
X288698D01*
X198000Y35000D02*
X213000D01*
X188000D02*
X198000D01*
X178000D02*
X188000D01*
X198000Y45000D02*
X213000D01*
X188000D02*
X198000D01*
X178000D02*
X188000D01*
X198000Y55000D02*
X213000D01*
X188000D02*
X198000D01*
X178000D02*
X188000D01*
X198000Y65000D02*
X213000D01*
X188000D02*
X198000D01*
X178000D02*
X188000D01*
X198000Y75000D02*
X213000D01*
X188000D02*
X198000D01*
X178000D02*
X188000D01*
X198000Y85000D02*
X213000D01*
X188000D02*
X198000D01*
X178000D02*
X188000D01*
X198000Y135000D02*
X213000D01*
X188000D02*
X198000D01*
X178000D02*
X188000D01*
X198000Y145000D02*
X213000D01*
X188000D02*
X198000D01*
X178000D02*
X188000D01*
X198000Y155000D02*
X213000D01*
X188000D02*
X198000D01*
X178000D02*
X188000D01*
X198000Y165000D02*
X213000D01*
X188000D02*
X198000D01*
X178000D02*
X188000D01*
X198000Y175000D02*
X213000D01*
X188000D02*
X198000D01*
X178000D02*
X188000D01*
X198000Y185000D02*
X213000D01*
X188000D02*
X198000D01*
X178000D02*
X188000D01*
X198000Y195000D02*
X213000D01*
X188000D02*
X198000D01*
X178000D02*
X188000D01*
X198000Y205000D02*
X213000D01*
X188000D02*
X198000D01*
X178000D02*
X188000D01*
X198000Y215000D02*
X213000D01*
X188000D02*
X198000D01*
X178000D02*
X188000D01*
X243000Y145000D02*
Y230000D01*
X212000Y226000D02*
X213000Y225000D01*
X198000Y226000D02*
X212000D01*
X178000D02*
X188000D01*
X198000D01*
X198189Y226189D01*
Y237709D01*
X187113Y109711D02*
X191824Y105000D01*
X192403Y115000D02*
X213000D01*
X185316Y122087D02*
X192403Y115000D01*
X150065Y122087D02*
X185316D01*
X191824Y105000D02*
X213000D01*
X189898Y95000D02*
X213000D01*
X188000Y96898D02*
X189898Y95000D01*
X186102D02*
X188000Y96898D01*
X153000Y95000D02*
X186102D01*
X123000Y115000D02*
X142978D01*
X150065Y122087D01*
X243000Y145000D02*
X273000D01*
X223000Y125000D02*
X243000Y145000D01*
X213000Y125000D02*
X223000D01*
X263000Y135000D02*
X273000D01*
X243000Y115000D02*
X263000Y135000D01*
X213000Y115000D02*
X243000D01*
X123000Y95000D02*
Y115000D01*
X198000Y237520D02*
X198189Y237709D01*
D36*
X228000Y365000D02*
D03*
D37*
Y355000D02*
D03*
Y345000D02*
D03*
Y335000D02*
D03*
Y325000D02*
D03*
Y315000D02*
D03*
Y305000D02*
D03*
X262646D02*
D03*
Y315000D02*
D03*
Y325000D02*
D03*
Y335000D02*
D03*
Y345000D02*
D03*
Y355000D02*
D03*
Y365000D02*
D03*
X109000Y282000D02*
D03*
X349000Y135000D02*
D03*
X278000Y241000D02*
D03*
X231000Y225000D02*
D03*
X255000Y166000D02*
D03*
X147000Y246000D02*
D03*
D38*
X228000Y295000D02*
D03*
X262646D02*
D03*
D39*
X40000Y90000D02*
D03*
Y120000D02*
D03*
X20000D02*
D03*
Y90000D02*
D03*
X330000Y85000D02*
D03*
Y55000D02*
D03*
X198189Y237709D02*
D03*
X168189D02*
D03*
D40*
X193000Y365000D02*
D03*
X203000D02*
D03*
X213000D02*
D03*
X337000Y302000D02*
D03*
Y292000D02*
D03*
Y282000D02*
D03*
Y272000D02*
D03*
Y262000D02*
D03*
X97000Y338000D02*
D03*
Y208000D02*
D03*
Y218000D02*
D03*
Y228000D02*
D03*
Y238000D02*
D03*
Y248000D02*
D03*
Y258000D02*
D03*
Y268000D02*
D03*
Y278000D02*
D03*
Y288000D02*
D03*
Y298000D02*
D03*
Y308000D02*
D03*
Y318000D02*
D03*
Y328000D02*
D03*
Y348000D02*
D03*
Y358000D02*
D03*
X213000Y355000D02*
D03*
X203000D02*
D03*
X193000D02*
D03*
X213000Y345000D02*
D03*
X203000D02*
D03*
X193000D02*
D03*
X213000Y315000D02*
D03*
X203000D02*
D03*
X193000D02*
D03*
X213000Y305000D02*
D03*
X203000D02*
D03*
X193000D02*
D03*
X213000Y295000D02*
D03*
X203000D02*
D03*
X193000D02*
D03*
X301000Y349000D02*
D03*
X291000D02*
D03*
X281000D02*
D03*
X301000Y339000D02*
D03*
X291000D02*
D03*
X281000D02*
D03*
X298000Y315000D02*
D03*
X288000D02*
D03*
X278000D02*
D03*
X298000Y305000D02*
D03*
X288000D02*
D03*
X278000D02*
D03*
X298000Y295000D02*
D03*
X288000D02*
D03*
X278000D02*
D03*
X330000Y105000D02*
D03*
X340000D02*
D03*
X297000Y380000D02*
D03*
X307000D02*
D03*
X317000D02*
D03*
X327000D02*
D03*
X337000D02*
D03*
X229000D02*
D03*
X239000D02*
D03*
X249000D02*
D03*
X259000D02*
D03*
X269000D02*
D03*
X345000Y20000D02*
D03*
X335000D02*
D03*
X325000D02*
D03*
X345000Y40000D02*
D03*
X335000D02*
D03*
X325000D02*
D03*
X367000Y201000D02*
D03*
Y211000D02*
D03*
Y221000D02*
D03*
Y231000D02*
D03*
Y241000D02*
D03*
Y191000D02*
D03*
X198000Y226000D02*
D03*
X188000D02*
D03*
X178000D02*
D03*
X288698Y215000D02*
D03*
X298698D02*
D03*
X308698D02*
D03*
X288698Y225000D02*
D03*
X298698D02*
D03*
X308698D02*
D03*
X178000Y75000D02*
D03*
X188000D02*
D03*
X198000D02*
D03*
X178000Y205000D02*
D03*
X188000D02*
D03*
X198000D02*
D03*
X178000Y45000D02*
D03*
X188000D02*
D03*
X198000D02*
D03*
X178000Y65000D02*
D03*
X188000D02*
D03*
X198000D02*
D03*
X178000Y195000D02*
D03*
X188000D02*
D03*
X198000D02*
D03*
X178000Y35000D02*
D03*
X188000D02*
D03*
X198000D02*
D03*
X178000Y55000D02*
D03*
X188000D02*
D03*
X198000D02*
D03*
X178000Y185000D02*
D03*
X188000D02*
D03*
X198000D02*
D03*
X288698Y35000D02*
D03*
X298698D02*
D03*
X308698D02*
D03*
X288698Y55000D02*
D03*
X298698D02*
D03*
X308698D02*
D03*
X178000Y175000D02*
D03*
X188000D02*
D03*
X198000D02*
D03*
X288698Y45000D02*
D03*
X298698D02*
D03*
X308698D02*
D03*
X288698Y65000D02*
D03*
X298698D02*
D03*
X308698D02*
D03*
X178000Y165000D02*
D03*
X188000D02*
D03*
X198000D02*
D03*
X288698Y95000D02*
D03*
X298698D02*
D03*
X308698D02*
D03*
X288698Y75000D02*
D03*
X298698D02*
D03*
X308698D02*
D03*
X288698Y155000D02*
D03*
X298698D02*
D03*
X308698D02*
D03*
X288698Y105000D02*
D03*
X298698D02*
D03*
X308698D02*
D03*
X288698Y85000D02*
D03*
X298698D02*
D03*
X308698D02*
D03*
X288698Y165000D02*
D03*
X298698D02*
D03*
X308698D02*
D03*
X288698Y115000D02*
D03*
X298698D02*
D03*
X308698D02*
D03*
X288698Y175000D02*
D03*
X298698D02*
D03*
X308698D02*
D03*
X288698Y125000D02*
D03*
X298698D02*
D03*
X308698D02*
D03*
X288698Y185000D02*
D03*
X298698D02*
D03*
X308698D02*
D03*
X178000Y155000D02*
D03*
X188000D02*
D03*
X198000D02*
D03*
X288698Y195000D02*
D03*
X298698D02*
D03*
X308698D02*
D03*
X178000Y145000D02*
D03*
X188000D02*
D03*
X198000D02*
D03*
X288698Y205000D02*
D03*
X298698D02*
D03*
X308698D02*
D03*
X178000Y135000D02*
D03*
X188000D02*
D03*
X198000D02*
D03*
X178000Y85000D02*
D03*
X188000D02*
D03*
X198000D02*
D03*
X178000Y215000D02*
D03*
X188000D02*
D03*
X198000D02*
D03*
D41*
X170000Y370000D02*
D03*
X150000D02*
D03*
X130000D02*
D03*
X370000Y120000D02*
D03*
Y100000D02*
D03*
Y80000D02*
D03*
Y60000D02*
D03*
Y40000D02*
D03*
Y20000D02*
D03*
X367000Y318000D02*
D03*
Y338000D02*
D03*
Y359000D02*
D03*
Y379000D02*
D03*
D42*
X188000Y109102D02*
D03*
Y96898D02*
D03*
D43*
X153000Y95000D02*
D03*
X123000D02*
D03*
X153000Y115000D02*
D03*
X123000D02*
D03*
D44*
X273000Y35000D02*
D03*
Y45000D02*
D03*
Y55000D02*
D03*
Y65000D02*
D03*
Y75000D02*
D03*
Y85000D02*
D03*
Y95000D02*
D03*
Y105000D02*
D03*
Y115000D02*
D03*
Y125000D02*
D03*
Y135000D02*
D03*
Y145000D02*
D03*
Y155000D02*
D03*
Y165000D02*
D03*
Y175000D02*
D03*
Y185000D02*
D03*
Y195000D02*
D03*
Y205000D02*
D03*
Y215000D02*
D03*
Y225000D02*
D03*
X213000Y35000D02*
D03*
Y45000D02*
D03*
Y55000D02*
D03*
Y65000D02*
D03*
Y75000D02*
D03*
Y85000D02*
D03*
Y95000D02*
D03*
Y105000D02*
D03*
Y115000D02*
D03*
Y125000D02*
D03*
Y135000D02*
D03*
Y145000D02*
D03*
Y155000D02*
D03*
Y165000D02*
D03*
Y175000D02*
D03*
Y185000D02*
D03*
Y195000D02*
D03*
Y205000D02*
D03*
Y215000D02*
D03*
D45*
Y225000D02*
D03*
M02*
